<svg width="193" height="31" viewBox="0 0 193 31" fill="none" xmlns="http://www.w3.org/2000/svg">
<path d="M10.519 3.207C8.543 3.857 7.009 4.936 5.917 6.444C4.851 7.926 4.318 9.772 4.318 11.982C4.318 12.97 4.409 13.646 4.591 14.01C4.773 14.374 4.864 14.595 4.864 14.673C2.082 14.673 0.691 13.49 0.691 11.124C0.691 9.512 1.302 7.9 2.524 6.288C3.772 4.65 5.358 3.324 7.282 2.31C9.232 1.27 11.169 0.749998 13.093 0.749998C14.055 0.749998 15.043 0.931998 16.057 1.296L15.16 21.849L23.74 1.296H29.356L25.261 30H19.645L22.141 12.489L14.809 30H9.466L10.246 12.411L3.733 30H0.613L10.519 3.207ZM33.3773 30.234C31.8953 30.234 30.6603 29.727 29.6723 28.713C28.6843 27.699 28.1903 26.113 28.1903 23.955C28.1903 22.031 28.5673 20.016 29.3213 17.91C30.1013 15.778 31.2453 13.984 32.7533 12.528C34.2873 11.046 36.1073 10.305 38.2133 10.305C39.2793 10.305 40.0723 10.487 40.5923 10.851C41.1123 11.215 41.3723 11.696 41.3723 12.294V12.567L41.8013 10.5H47.4173L44.6093 23.76C44.5053 24.15 44.4533 24.566 44.4533 25.008C44.4533 26.126 44.9863 26.685 46.0523 26.685C46.7803 26.685 47.4043 26.347 47.9243 25.671C48.4703 24.995 48.8993 24.111 49.2113 23.019H50.8493C49.8873 25.827 48.6913 27.738 47.2613 28.752C45.8573 29.74 44.4403 30.234 43.0103 30.234C41.9183 30.234 41.0343 29.935 40.3583 29.337C39.7083 28.713 39.3183 27.816 39.1883 26.646C38.4343 27.712 37.5893 28.583 36.6533 29.259C35.7433 29.909 34.6513 30.234 33.3773 30.234ZM35.9123 26.451C36.5623 26.451 37.1993 26.152 37.8233 25.554C38.4733 24.93 38.9153 24.085 39.1493 23.019L41.0213 14.205C41.0213 13.867 40.8913 13.542 40.6313 13.23C40.3713 12.892 39.9683 12.723 39.4223 12.723C38.3823 12.723 37.4463 13.334 36.6143 14.556C35.7823 15.752 35.1323 17.208 34.6643 18.924C34.1963 20.614 33.9623 22.109 33.9623 23.409C33.9623 24.709 34.1443 25.541 34.5083 25.905C34.8983 26.269 35.3663 26.451 35.9123 26.451ZM51.8776 10.5H57.4936L56.9866 12.918C57.8706 12.138 58.6636 11.54 59.3656 11.124C60.0936 10.708 60.8736 10.5 61.7056 10.5C62.5376 10.5 63.1876 10.786 63.6556 11.358C64.1496 11.93 64.3966 12.619 64.3966 13.425C64.3966 14.179 64.1496 14.842 63.6556 15.414C63.1616 15.986 62.4726 16.272 61.5886 16.272C61.0166 16.272 60.6266 16.142 60.4186 15.882C60.2366 15.596 60.0936 15.193 59.9896 14.673C59.9116 14.335 59.8336 14.088 59.7556 13.932C59.6776 13.776 59.5346 13.698 59.3266 13.698C58.7806 13.698 58.3126 13.815 57.9226 14.049C57.5586 14.257 57.0776 14.634 56.4796 15.18L53.3596 30H47.7436L51.8776 10.5ZM78.5527 30.234C76.9407 30.234 75.7187 29.857 74.8867 29.103C74.0547 28.323 73.6387 27.218 73.6387 25.788C73.6387 25.164 73.7167 24.488 73.8727 23.76L74.1847 22.239C74.2887 21.797 74.3407 21.316 74.3407 20.796C74.3407 19.548 73.8727 18.924 72.9367 18.924C72.5207 18.924 72.0787 19.041 71.6107 19.275C71.1687 19.509 70.6487 19.873 70.0507 20.367L68.0227 30H62.4067L68.0617 3.48L73.8337 2.7L70.9087 16.428L78.4357 10.5H82.2967L74.4967 15.921C74.8867 15.817 75.3157 15.765 75.7837 15.765C77.1877 15.765 78.2537 16.194 78.9817 17.052C79.7097 17.91 80.0737 19.002 80.0737 20.328C80.0737 20.874 80.0217 21.368 79.9177 21.81L79.4887 23.76C79.3587 24.228 79.2937 24.644 79.2937 25.008C79.2937 25.97 79.8007 26.451 80.8147 26.451C81.5947 26.451 82.2187 26.178 82.6867 25.632C83.1547 25.06 83.6227 24.189 84.0907 23.019H85.7287C84.1167 27.829 81.7247 30.234 78.5527 30.234ZM89.6512 30.234C87.7272 30.234 86.2322 29.74 85.1662 28.752C84.1002 27.738 83.5672 26.165 83.5672 24.033C83.5672 22.239 83.9182 20.263 84.6202 18.105C85.3222 15.947 86.4662 14.088 88.0522 12.528C89.6382 10.942 91.6532 10.149 94.0972 10.149C96.9572 10.149 98.3872 11.397 98.3872 13.893C98.3872 15.349 97.9712 16.688 97.1392 17.91C96.3072 19.132 95.2022 20.12 93.8242 20.874C92.4462 21.602 90.9772 22.018 89.4172 22.122C89.3652 22.902 89.3392 23.422 89.3392 23.682C89.3392 24.956 89.5602 25.827 90.0022 26.295C90.4442 26.737 91.1592 26.958 92.1472 26.958C93.5512 26.958 94.7472 26.633 95.7352 25.983C96.7492 25.333 97.8542 24.345 99.0502 23.019H100.376C97.4902 27.829 93.9152 30.234 89.6512 30.234ZM89.7292 20.25C90.6912 20.198 91.6012 19.86 92.4592 19.236C93.3432 18.612 94.0452 17.819 94.5652 16.857C95.1112 15.895 95.3842 14.881 95.3842 13.815C95.3842 12.749 95.0592 12.216 94.4092 12.216C93.4732 12.216 92.5502 13.035 91.6402 14.673C90.7562 16.311 90.1192 18.17 89.7292 20.25ZM102.708 30.234C101.382 30.234 100.394 29.831 99.744 29.025C99.12 28.219 98.808 27.153 98.808 25.827C98.808 25.151 98.886 24.462 99.042 23.76L101.538 12.06H100.251L100.563 10.5H101.85L103.02 5.118L108.792 4.338C108.558 5.326 108.428 5.911 108.402 6.093C108.22 6.821 107.908 8.29 107.466 10.5H109.806L109.494 12.06H107.154L104.658 23.76C104.528 24.332 104.463 24.787 104.463 25.125C104.463 26.061 104.918 26.529 105.828 26.529C106.296 26.529 106.634 26.49 106.842 26.412C106.322 27.92 105.711 28.934 105.009 29.454C104.307 29.974 103.54 30.234 102.708 30.234ZM118.79 5.196L124.562 4.416L121.793 17.442C123.041 17.338 124.185 16.792 125.225 15.804C126.291 14.816 127.123 13.594 127.721 12.138C128.319 10.682 128.618 9.252 128.618 7.848C128.618 6.288 128.215 5.014 127.409 4.026C126.603 3.038 125.394 2.544 123.782 2.544C120.61 2.544 118.127 3.376 116.333 5.04C114.565 6.704 113.681 9.031 113.681 12.021C113.681 12.983 113.772 13.659 113.954 14.049C114.136 14.413 114.227 14.621 114.227 14.673C112.823 14.673 111.77 14.387 111.068 13.815C110.392 13.217 110.054 12.242 110.054 10.89C110.054 9.226 110.73 7.614 112.082 6.054C113.46 4.468 115.215 3.194 117.347 2.232C119.479 1.244 121.611 0.749998 123.743 0.749998C125.797 0.749998 127.513 1.101 128.891 1.803C130.269 2.505 131.283 3.441 131.933 4.611C132.609 5.755 132.947 7.029 132.947 8.433C132.947 10.123 132.479 11.774 131.543 13.386C130.633 14.998 129.32 16.324 127.604 17.364C125.888 18.378 123.912 18.885 121.676 18.885H121.481L119.102 30H113.486L118.79 5.196ZM136.038 30.234C134.79 30.234 133.776 29.844 132.996 29.064C132.242 28.284 131.865 27.114 131.865 25.554C131.865 24.904 131.969 24.059 132.177 23.019L136.35 3.48L142.122 2.7L137.637 23.76C137.533 24.15 137.481 24.566 137.481 25.008C137.481 25.528 137.598 25.905 137.832 26.139C138.092 26.347 138.508 26.451 139.08 26.451C139.834 26.451 140.536 26.139 141.186 25.515C141.836 24.865 142.304 24.033 142.59 23.019H144.228C143.266 25.827 142.031 27.738 140.523 28.752C139.015 29.74 137.52 30.234 136.038 30.234ZM147.254 30.234C145.772 30.234 144.537 29.727 143.549 28.713C142.561 27.699 142.067 26.113 142.067 23.955C142.067 22.031 142.444 20.016 143.198 17.91C143.978 15.778 145.122 13.984 146.63 12.528C148.164 11.046 149.984 10.305 152.09 10.305C153.156 10.305 153.949 10.487 154.469 10.851C154.989 11.215 155.249 11.696 155.249 12.294V12.567L155.678 10.5H161.294L158.486 23.76C158.382 24.15 158.33 24.566 158.33 25.008C158.33 26.126 158.863 26.685 159.929 26.685C160.657 26.685 161.281 26.347 161.801 25.671C162.347 24.995 162.776 24.111 163.088 23.019H164.726C163.764 25.827 162.568 27.738 161.138 28.752C159.734 29.74 158.317 30.234 156.887 30.234C155.795 30.234 154.911 29.935 154.235 29.337C153.585 28.713 153.195 27.816 153.065 26.646C152.311 27.712 151.466 28.583 150.53 29.259C149.62 29.909 148.528 30.234 147.254 30.234ZM149.789 26.451C150.439 26.451 151.076 26.152 151.7 25.554C152.35 24.93 152.792 24.085 153.026 23.019L154.898 14.205C154.898 13.867 154.768 13.542 154.508 13.23C154.248 12.892 153.845 12.723 153.299 12.723C152.259 12.723 151.323 13.334 150.491 14.556C149.659 15.752 149.009 17.208 148.541 18.924C148.073 20.614 147.839 22.109 147.839 23.409C147.839 24.709 148.021 25.541 148.385 25.905C148.775 26.269 149.243 26.451 149.789 26.451ZM168.68 30.234C166.756 30.234 165.261 29.74 164.195 28.752C163.129 27.738 162.596 26.165 162.596 24.033C162.596 22.239 162.947 20.263 163.649 18.105C164.377 15.947 165.521 14.088 167.081 12.528C168.667 10.942 170.669 10.149 173.087 10.149C174.647 10.149 175.752 10.487 176.402 11.163C177.078 11.839 177.416 12.697 177.416 13.737C177.416 14.647 177.221 15.349 176.831 15.843C176.441 16.337 175.947 16.584 175.349 16.584C174.907 16.584 174.452 16.428 173.984 16.116C174.296 15.258 174.452 14.491 174.452 13.815C174.452 13.321 174.361 12.931 174.179 12.645C173.997 12.359 173.724 12.216 173.36 12.216C172.58 12.216 171.8 12.853 171.02 14.127C170.24 15.401 169.603 16.948 169.109 18.768C168.615 20.588 168.368 22.226 168.368 23.682C168.368 24.956 168.589 25.827 169.031 26.295C169.473 26.737 170.188 26.958 171.176 26.958C172.58 26.958 173.776 26.633 174.764 25.983C175.778 25.333 176.883 24.345 178.079 23.019H179.405C176.519 27.829 172.944 30.234 168.68 30.234ZM183.569 30.234C181.671 30.234 180.189 29.74 179.123 28.752C178.057 27.738 177.524 26.165 177.524 24.033C177.524 22.239 177.875 20.263 178.577 18.105C179.279 15.947 180.423 14.088 182.009 12.528C183.595 10.942 185.61 10.149 188.054 10.149C190.914 10.149 192.344 11.397 192.344 13.893C192.344 15.349 191.928 16.688 191.096 17.91C190.264 19.132 189.159 20.12 187.781 20.874C186.403 21.602 184.934 22.018 183.374 22.122C183.322 22.694 183.296 23.084 183.296 23.292C183.296 25.45 184.102 26.529 185.714 26.529C186.442 26.529 187.222 26.334 188.054 25.944C188.886 25.554 189.64 25.06 190.316 24.462C189.614 28.31 187.365 30.234 183.569 30.234ZM183.647 20.25C184.635 20.224 185.558 19.899 186.416 19.275C187.3 18.651 188.002 17.858 188.522 16.896C189.068 15.908 189.341 14.881 189.341 13.815C189.341 12.749 189.016 12.216 188.366 12.216C187.456 12.216 186.546 13.048 185.636 14.712C184.752 16.35 184.089 18.196 183.647 20.25Z" fill="black"/>
</svg>
