<svg width="781" height="697" viewBox="0 0 781 697" fill="none" xmlns="http://www.w3.org/2000/svg">
<g filter="url(#filter0_d)">
<rect x="189" y="163" width="456" height="331" rx="50" fill="white"/>
</g>
<circle cx="478" cy="338" r="53.5" fill="white" stroke="#E5E9FA" stroke-width="3"/>
<mask id="mask0" style="mask-type:alpha" maskUnits="userSpaceOnUse" x="423" y="283" width="112" height="112">
<path fill-rule="evenodd" clip-rule="evenodd" d="M535 283H478V338H423V395H535V283Z" fill="white"/>
</mask>
<g mask="url(#mask0)">
<circle cx="478" cy="338" r="53.5" fill="white" stroke="#0F23FF" stroke-width="3"/>
</g>
<circle cx="424.5" cy="337.5" r="3.5" fill="#1676FF"/>
<g clip-path="url(#clip0)">
<path d="M461.119 339L467.33 327.008V326.852H459.947V324.908H469.547V326.891L463.414 339H461.119ZM476.871 339.342C475.471 339.342 474.319 338.951 473.414 338.17C472.509 337.389 472.024 336.38 471.959 335.143H474.039C474.124 335.826 474.426 336.376 474.947 336.793C475.468 337.21 476.116 337.418 476.891 337.418C477.77 337.418 478.479 337.151 479.02 336.617C479.56 336.083 479.83 335.377 479.83 334.498C479.83 333.619 479.56 332.906 479.02 332.359C478.479 331.806 477.779 331.529 476.92 331.529C476.321 331.529 475.784 331.656 475.309 331.91C474.833 332.164 474.459 332.519 474.186 332.975H472.184L472.926 324.908H481.148V326.861H474.635L474.264 330.992H474.43C475.094 330.139 476.087 329.713 477.408 329.713C478.749 329.713 479.843 330.156 480.689 331.041C481.542 331.92 481.969 333.053 481.969 334.439C481.969 335.898 481.497 337.079 480.553 337.984C479.615 338.889 478.388 339.342 476.871 339.342ZM489.234 325.592C489.814 326.236 490.104 327.073 490.104 328.102C490.104 329.13 489.814 329.967 489.234 330.611C488.661 331.256 487.916 331.578 486.998 331.578C486.087 331.578 485.341 331.256 484.762 330.611C484.182 329.96 483.893 329.124 483.893 328.102C483.893 327.073 484.179 326.236 484.752 325.592C485.331 324.947 486.08 324.625 486.998 324.625C487.916 324.625 488.661 324.947 489.234 325.592ZM486.031 329.518C486.272 329.876 486.594 330.055 486.998 330.055C487.402 330.055 487.724 329.876 487.965 329.518C488.206 329.16 488.326 328.684 488.326 328.092C488.326 327.486 488.206 327.011 487.965 326.666C487.73 326.321 487.408 326.148 486.998 326.148C486.594 326.148 486.272 326.324 486.031 326.676C485.79 327.027 485.67 327.499 485.67 328.092C485.67 328.684 485.79 329.16 486.031 329.518ZM487.262 339H485.123L490.484 331.637L495.172 324.908H497.301L491.852 332.369L487.262 339ZM498.473 335.797C498.473 336.826 498.183 337.665 497.604 338.316C497.031 338.961 496.285 339.283 495.367 339.283C494.449 339.283 493.701 338.961 493.121 338.316C492.542 337.665 492.252 336.826 492.252 335.797C492.252 334.775 492.542 333.941 493.121 333.297C493.701 332.652 494.449 332.33 495.367 332.33C496.285 332.33 497.031 332.652 497.604 333.297C498.183 333.941 498.473 334.775 498.473 335.797ZM495.367 337.76C495.764 337.76 496.083 337.584 496.324 337.232C496.565 336.874 496.686 336.396 496.686 335.797C496.686 335.191 496.565 334.716 496.324 334.371C496.09 334.026 495.771 333.854 495.367 333.854C494.964 333.854 494.641 334.029 494.4 334.381C494.16 334.732 494.039 335.204 494.039 335.797C494.039 336.389 494.16 336.865 494.4 337.223C494.641 337.581 494.964 337.76 495.367 337.76Z" fill="black"/>
<path d="M460.777 351.744C460.689 352.496 460.411 353.077 459.942 353.487C459.477 353.894 458.857 354.098 458.082 354.098C457.242 354.098 456.568 353.797 456.061 353.194C455.556 352.592 455.304 351.786 455.304 350.777V350.094C455.304 349.433 455.421 348.852 455.655 348.351C455.893 347.849 456.228 347.465 456.661 347.198C457.094 346.928 457.595 346.793 458.165 346.793C458.92 346.793 459.526 347.005 459.981 347.428C460.437 347.848 460.702 348.43 460.777 349.176H459.835C459.754 348.609 459.576 348.199 459.303 347.945C459.033 347.691 458.653 347.564 458.165 347.564C457.566 347.564 457.096 347.786 456.754 348.229C456.415 348.671 456.246 349.301 456.246 350.118V350.807C456.246 351.578 456.407 352.192 456.729 352.647C457.052 353.103 457.503 353.331 458.082 353.331C458.603 353.331 459.002 353.214 459.278 352.979C459.558 352.742 459.744 352.33 459.835 351.744H460.777ZM461.681 351.31C461.681 350.792 461.782 350.326 461.983 349.913C462.188 349.5 462.472 349.181 462.833 348.956C463.198 348.731 463.613 348.619 464.078 348.619C464.798 348.619 465.379 348.868 465.821 349.366C466.267 349.864 466.49 350.527 466.49 351.354V351.417C466.49 351.931 466.391 352.394 466.192 352.804C465.997 353.211 465.715 353.528 465.348 353.756C464.983 353.984 464.563 354.098 464.088 354.098C463.372 354.098 462.791 353.849 462.345 353.351C461.902 352.853 461.681 352.193 461.681 351.373V351.31ZM462.589 351.417C462.589 352.003 462.724 352.473 462.994 352.828C463.268 353.183 463.632 353.36 464.088 353.36C464.547 353.36 464.911 353.181 465.182 352.823C465.452 352.462 465.587 351.957 465.587 351.31C465.587 350.73 465.449 350.261 465.172 349.903C464.898 349.542 464.534 349.361 464.078 349.361C463.632 349.361 463.272 349.539 462.999 349.894C462.726 350.248 462.589 350.756 462.589 351.417ZM468.473 348.717L468.497 349.303C468.884 348.847 469.407 348.619 470.064 348.619C470.803 348.619 471.306 348.902 471.573 349.469C471.749 349.215 471.977 349.01 472.257 348.854C472.54 348.697 472.874 348.619 473.258 348.619C474.417 348.619 475.006 349.233 475.025 350.46V354H474.122V350.514C474.122 350.136 474.036 349.854 473.863 349.669C473.691 349.48 473.401 349.386 472.994 349.386C472.659 349.386 472.381 349.487 472.159 349.688C471.938 349.887 471.809 350.156 471.773 350.494V354H470.865V350.538C470.865 349.77 470.489 349.386 469.737 349.386C469.145 349.386 468.74 349.638 468.521 350.143V354H467.618V348.717H468.473ZM480.855 351.417C480.855 352.221 480.672 352.869 480.304 353.36C479.936 353.852 479.438 354.098 478.81 354.098C478.168 354.098 477.664 353.894 477.296 353.487V356.031H476.393V348.717H477.218L477.262 349.303C477.63 348.847 478.141 348.619 478.795 348.619C479.43 348.619 479.931 348.858 480.299 349.337C480.67 349.815 480.855 350.481 480.855 351.334V351.417ZM479.952 351.314C479.952 350.719 479.825 350.248 479.571 349.903C479.317 349.558 478.969 349.386 478.526 349.386C477.979 349.386 477.569 349.628 477.296 350.113V352.638C477.566 353.119 477.979 353.36 478.536 353.36C478.969 353.36 479.312 353.189 479.566 352.848C479.824 352.503 479.952 351.992 479.952 351.314ZM482.989 354H482.086V346.5H482.989V354ZM486.632 354.098C485.916 354.098 485.333 353.863 484.884 353.395C484.435 352.923 484.21 352.293 484.21 351.505V351.339C484.21 350.815 484.309 350.348 484.508 349.938C484.71 349.524 484.99 349.202 485.348 348.971C485.709 348.736 486.1 348.619 486.52 348.619C487.206 348.619 487.74 348.845 488.121 349.298C488.502 349.75 488.692 350.398 488.692 351.241V351.617H485.113C485.126 352.138 485.278 352.56 485.567 352.882C485.86 353.201 486.231 353.36 486.681 353.36C487 353.36 487.27 353.295 487.491 353.165C487.713 353.035 487.906 352.862 488.072 352.647L488.624 353.077C488.181 353.757 487.517 354.098 486.632 354.098ZM486.52 349.361C486.155 349.361 485.849 349.495 485.602 349.762C485.354 350.025 485.201 350.396 485.143 350.875H487.789V350.807C487.763 350.348 487.639 349.993 487.418 349.742C487.197 349.488 486.897 349.361 486.52 349.361ZM490.968 347.438V348.717H491.954V349.415H490.968V352.691C490.968 352.903 491.012 353.062 491.1 353.17C491.188 353.274 491.337 353.326 491.549 353.326C491.653 353.326 491.796 353.307 491.979 353.268V354C491.741 354.065 491.51 354.098 491.285 354.098C490.882 354.098 490.577 353.976 490.372 353.731C490.167 353.487 490.064 353.141 490.064 352.691V349.415H489.103V348.717H490.064V347.438H490.968ZM495.206 354.098C494.49 354.098 493.907 353.863 493.458 353.395C493.009 352.923 492.784 352.293 492.784 351.505V351.339C492.784 350.815 492.883 350.348 493.082 349.938C493.284 349.524 493.564 349.202 493.922 348.971C494.283 348.736 494.674 348.619 495.094 348.619C495.781 348.619 496.314 348.845 496.695 349.298C497.076 349.75 497.267 350.398 497.267 351.241V351.617H493.688C493.701 352.138 493.852 352.56 494.142 352.882C494.435 353.201 494.806 353.36 495.255 353.36C495.574 353.36 495.844 353.295 496.065 353.165C496.287 353.035 496.48 352.862 496.646 352.647L497.198 353.077C496.756 353.757 496.091 354.098 495.206 354.098ZM495.094 349.361C494.729 349.361 494.423 349.495 494.176 349.762C493.928 350.025 493.775 350.396 493.717 350.875H496.363V350.807C496.337 350.348 496.214 349.993 495.992 349.742C495.771 349.488 495.471 349.361 495.094 349.361ZM498.097 351.314C498.097 350.504 498.289 349.853 498.673 349.361C499.057 348.867 499.56 348.619 500.182 348.619C500.8 348.619 501.29 348.831 501.651 349.254V346.5H502.555V354H501.725L501.681 353.434C501.319 353.876 500.816 354.098 500.172 354.098C499.56 354.098 499.06 353.847 498.673 353.346C498.289 352.844 498.097 352.19 498.097 351.383V351.314ZM499 351.417C499 352.016 499.124 352.485 499.371 352.823C499.618 353.162 499.96 353.331 500.396 353.331C500.969 353.331 501.388 353.074 501.651 352.56V350.133C501.381 349.635 500.966 349.386 500.406 349.386C499.964 349.386 499.618 349.557 499.371 349.898C499.124 350.24 499 350.746 499 351.417Z" fill="#454545"/>
</g>
<path d="M239.056 236.126C237.892 236.126 236.818 235.856 235.834 235.316C234.862 234.764 234.088 234.002 233.512 233.03C232.948 232.046 232.666 230.942 232.666 229.718C232.666 228.494 232.948 227.396 233.512 226.424C234.088 225.452 234.862 224.696 235.834 224.156C236.818 223.604 237.892 223.328 239.056 223.328C240.232 223.328 241.306 223.604 242.278 224.156C243.262 224.696 244.036 225.452 244.6 226.424C245.164 227.396 245.446 228.494 245.446 229.718C245.446 230.942 245.164 232.046 244.6 233.03C244.036 234.002 243.262 234.764 242.278 235.316C241.306 235.856 240.232 236.126 239.056 236.126ZM239.056 234.344C239.884 234.344 240.622 234.158 241.27 233.786C241.918 233.402 242.422 232.862 242.782 232.166C243.154 231.458 243.34 230.642 243.34 229.718C243.34 228.794 243.154 227.984 242.782 227.288C242.422 226.592 241.918 226.058 241.27 225.686C240.622 225.314 239.884 225.128 239.056 225.128C238.228 225.128 237.49 225.314 236.842 225.686C236.194 226.058 235.684 226.592 235.312 227.288C234.952 227.984 234.772 228.794 234.772 229.718C234.772 230.642 234.952 231.458 235.312 232.166C235.684 232.862 236.194 233.402 236.842 233.786C237.49 234.158 238.228 234.344 239.056 234.344ZM249.517 227.558C249.865 227.078 250.339 226.688 250.939 226.388C251.551 226.076 252.229 225.92 252.973 225.92C253.849 225.92 254.641 226.13 255.349 226.55C256.057 226.97 256.615 227.57 257.023 228.35C257.431 229.118 257.635 230 257.635 230.996C257.635 231.992 257.431 232.886 257.023 233.678C256.615 234.458 256.051 235.07 255.331 235.514C254.623 235.946 253.837 236.162 252.973 236.162C252.205 236.162 251.521 236.012 250.921 235.712C250.333 235.412 249.865 235.028 249.517 234.56V236H247.465V222.68H249.517V227.558ZM255.547 230.996C255.547 230.312 255.403 229.724 255.115 229.232C254.839 228.728 254.467 228.35 253.999 228.098C253.543 227.834 253.051 227.702 252.523 227.702C252.007 227.702 251.515 227.834 251.047 228.098C250.591 228.362 250.219 228.746 249.931 229.25C249.655 229.754 249.517 230.348 249.517 231.032C249.517 231.716 249.655 232.316 249.931 232.832C250.219 233.336 250.591 233.72 251.047 233.984C251.515 234.248 252.007 234.38 252.523 234.38C253.051 234.38 253.543 234.248 253.999 233.984C254.467 233.708 254.839 233.312 255.115 232.796C255.403 232.28 255.547 231.68 255.547 230.996ZM260.708 224.768C260.336 224.768 260.024 224.642 259.772 224.39C259.52 224.138 259.394 223.826 259.394 223.454C259.394 223.082 259.52 222.77 259.772 222.518C260.024 222.266 260.336 222.14 260.708 222.14C261.068 222.14 261.374 222.266 261.626 222.518C261.878 222.77 262.004 223.082 262.004 223.454C262.004 223.826 261.878 224.138 261.626 224.39C261.374 224.642 261.068 224.768 260.708 224.768ZM261.716 237.944C261.716 238.916 261.47 239.618 260.978 240.05C260.498 240.494 259.796 240.716 258.872 240.716H257.81V238.988H258.512C258.932 238.988 259.226 238.904 259.394 238.736C259.574 238.58 259.664 238.316 259.664 237.944V226.082H261.716V237.944ZM273.501 230.798C273.501 231.17 273.477 231.506 273.429 231.806H265.851C265.911 232.598 266.205 233.234 266.733 233.714C267.261 234.194 267.909 234.434 268.677 234.434C269.781 234.434 270.561 233.972 271.017 233.048H273.231C272.931 233.96 272.385 234.71 271.593 235.298C270.813 235.874 269.841 236.162 268.677 236.162C267.729 236.162 266.877 235.952 266.121 235.532C265.377 235.1 264.789 234.5 264.357 233.732C263.937 232.952 263.727 232.052 263.727 231.032C263.727 230.012 263.931 229.118 264.339 228.35C264.759 227.57 265.341 226.97 266.085 226.55C266.841 226.13 267.705 225.92 268.677 225.92C269.613 225.92 270.447 226.124 271.179 226.532C271.911 226.94 272.481 227.516 272.889 228.26C273.297 228.992 273.501 229.838 273.501 230.798ZM271.359 230.15C271.347 229.394 271.077 228.788 270.549 228.332C270.021 227.876 269.367 227.648 268.587 227.648C267.879 227.648 267.273 227.876 266.769 228.332C266.265 228.776 265.965 229.382 265.869 230.15H271.359ZM274.836 231.032C274.836 230.012 275.04 229.118 275.448 228.35C275.868 227.57 276.444 226.97 277.176 226.55C277.908 226.13 278.748 225.92 279.696 225.92C280.896 225.92 281.886 226.208 282.666 226.784C283.458 227.348 283.992 228.158 284.268 229.214H282.054C281.874 228.722 281.586 228.338 281.19 228.062C280.794 227.786 280.296 227.648 279.696 227.648C278.856 227.648 278.184 227.948 277.68 228.548C277.188 229.136 276.942 229.964 276.942 231.032C276.942 232.1 277.188 232.934 277.68 233.534C278.184 234.134 278.856 234.434 279.696 234.434C280.884 234.434 281.67 233.912 282.054 232.868H284.268C283.98 233.876 283.44 234.68 282.648 235.28C281.856 235.868 280.872 236.162 279.696 236.162C278.748 236.162 277.908 235.952 277.176 235.532C276.444 235.1 275.868 234.5 275.448 233.732C275.04 232.952 274.836 232.052 274.836 231.032ZM288.707 227.756V233.246C288.707 233.618 288.791 233.888 288.959 234.056C289.139 234.212 289.439 234.29 289.859 234.29H291.119V236H289.499C288.575 236 287.867 235.784 287.375 235.352C286.883 234.92 286.637 234.218 286.637 233.246V227.756H285.467V226.082H286.637V223.616H288.707V226.082H291.119V227.756H288.707ZM294.054 224.768C293.682 224.768 293.37 224.642 293.118 224.39C292.866 224.138 292.74 223.826 292.74 223.454C292.74 223.082 292.866 222.77 293.118 222.518C293.37 222.266 293.682 222.14 294.054 222.14C294.414 222.14 294.72 222.266 294.972 222.518C295.224 222.77 295.35 223.082 295.35 223.454C295.35 223.826 295.224 224.138 294.972 224.39C294.72 224.642 294.414 224.768 294.054 224.768ZM295.062 226.082V236H293.01V226.082H295.062ZM301.914 227.756H300.078V236H298.008V227.756H296.838V226.082H298.008V225.38C298.008 224.24 298.308 223.412 298.908 222.896C299.52 222.368 300.474 222.104 301.77 222.104V223.814C301.146 223.814 300.708 223.934 300.456 224.174C300.204 224.402 300.078 224.804 300.078 225.38V226.082H301.914V227.756ZM321.585 223.49V236H319.533V227.432L315.717 236H314.295L310.461 227.432V236H308.409V223.49H310.623L315.015 233.3L319.389 223.49H321.585ZM333.372 230.798C333.372 231.17 333.348 231.506 333.3 231.806H325.722C325.782 232.598 326.076 233.234 326.604 233.714C327.132 234.194 327.78 234.434 328.548 234.434C329.652 234.434 330.432 233.972 330.888 233.048H333.102C332.802 233.96 332.256 234.71 331.464 235.298C330.684 235.874 329.712 236.162 328.548 236.162C327.6 236.162 326.748 235.952 325.992 235.532C325.248 235.1 324.66 234.5 324.228 233.732C323.808 232.952 323.598 232.052 323.598 231.032C323.598 230.012 323.802 229.118 324.21 228.35C324.63 227.57 325.212 226.97 325.956 226.55C326.712 226.13 327.576 225.92 328.548 225.92C329.484 225.92 330.318 226.124 331.05 226.532C331.782 226.94 332.352 227.516 332.76 228.26C333.168 228.992 333.372 229.838 333.372 230.798ZM331.23 230.15C331.218 229.394 330.948 228.788 330.42 228.332C329.892 227.876 329.238 227.648 328.458 227.648C327.75 227.648 327.144 227.876 326.64 228.332C326.136 228.776 325.836 229.382 325.74 230.15H331.23ZM340.395 225.92C341.175 225.92 341.871 226.082 342.483 226.406C343.107 226.73 343.593 227.21 343.941 227.846C344.289 228.482 344.463 229.25 344.463 230.15V236H342.429V230.456C342.429 229.568 342.207 228.89 341.763 228.422C341.319 227.942 340.713 227.702 339.945 227.702C339.177 227.702 338.565 227.942 338.109 228.422C337.665 228.89 337.443 229.568 337.443 230.456V236H335.391V226.082H337.443V227.216C337.779 226.808 338.205 226.49 338.721 226.262C339.249 226.034 339.807 225.92 340.395 225.92ZM350.68 236.162C349.9 236.162 349.198 236.024 348.574 235.748C347.962 235.46 347.476 235.076 347.116 234.596C346.756 234.104 346.564 233.558 346.54 232.958H348.664C348.7 233.378 348.898 233.732 349.258 234.02C349.63 234.296 350.092 234.434 350.644 234.434C351.22 234.434 351.664 234.326 351.976 234.11C352.3 233.882 352.462 233.594 352.462 233.246C352.462 232.874 352.282 232.598 351.922 232.418C351.574 232.238 351.016 232.04 350.248 231.824C349.504 231.62 348.898 231.422 348.43 231.23C347.962 231.038 347.554 230.744 347.206 230.348C346.87 229.952 346.702 229.43 346.702 228.782C346.702 228.254 346.858 227.774 347.17 227.342C347.482 226.898 347.926 226.55 348.502 226.298C349.09 226.046 349.762 225.92 350.518 225.92C351.646 225.92 352.552 226.208 353.236 226.784C353.932 227.348 354.304 228.122 354.352 229.106H352.3C352.264 228.662 352.084 228.308 351.76 228.044C351.436 227.78 350.998 227.648 350.446 227.648C349.906 227.648 349.492 227.75 349.204 227.954C348.916 228.158 348.772 228.428 348.772 228.764C348.772 229.028 348.868 229.25 349.06 229.43C349.252 229.61 349.486 229.754 349.762 229.862C350.038 229.958 350.446 230.084 350.986 230.24C351.706 230.432 352.294 230.63 352.75 230.834C353.218 231.026 353.62 231.314 353.956 231.698C354.292 232.082 354.466 232.592 354.478 233.228C354.478 233.792 354.322 234.296 354.01 234.74C353.698 235.184 353.254 235.532 352.678 235.784C352.114 236.036 351.448 236.162 350.68 236.162ZM365.678 226.082V236H363.626V234.83C363.302 235.238 362.876 235.562 362.348 235.802C361.832 236.03 361.28 236.144 360.692 236.144C359.912 236.144 359.21 235.982 358.586 235.658C357.974 235.334 357.488 234.854 357.128 234.218C356.78 233.582 356.606 232.814 356.606 231.914V226.082H358.64V231.608C358.64 232.496 358.862 233.18 359.306 233.66C359.75 234.128 360.356 234.362 361.124 234.362C361.892 234.362 362.498 234.128 362.942 233.66C363.398 233.18 363.626 232.496 363.626 231.608V226.082H365.678ZM377.475 230.798C377.475 231.17 377.451 231.506 377.403 231.806H369.825C369.885 232.598 370.179 233.234 370.707 233.714C371.235 234.194 371.883 234.434 372.651 234.434C373.755 234.434 374.535 233.972 374.991 233.048H377.205C376.905 233.96 376.359 234.71 375.567 235.298C374.787 235.874 373.815 236.162 372.651 236.162C371.703 236.162 370.851 235.952 370.095 235.532C369.351 235.1 368.763 234.5 368.331 233.732C367.911 232.952 367.701 232.052 367.701 231.032C367.701 230.012 367.905 229.118 368.313 228.35C368.733 227.57 369.315 226.97 370.059 226.55C370.815 226.13 371.679 225.92 372.651 225.92C373.587 225.92 374.421 226.124 375.153 226.532C375.885 226.94 376.455 227.516 376.863 228.26C377.271 228.992 377.475 229.838 377.475 230.798ZM375.333 230.15C375.321 229.394 375.051 228.788 374.523 228.332C373.995 227.876 373.341 227.648 372.561 227.648C371.853 227.648 371.247 227.876 370.743 228.332C370.239 228.776 369.939 229.382 369.843 230.15H375.333ZM381.547 222.68V236H379.495V222.68H381.547Z" fill="black"/>
<path d="M234.742 250.937C234.742 250.312 234.954 249.797 235.377 249.394C235.803 248.99 236.344 248.788 236.998 248.788C237.63 248.788 238.159 248.979 238.585 249.359C239.015 249.737 239.229 250.206 239.229 250.766C239.229 251.133 239.125 251.495 238.917 251.85C238.709 252.204 238.316 252.691 237.74 253.31L236.046 255.131V255.209H239.347V256H234.786V255.395L237.223 252.733C237.675 252.242 237.976 251.868 238.126 251.61C238.276 251.353 238.351 251.083 238.351 250.8C238.351 250.448 238.217 250.154 237.95 249.916C237.687 249.675 237.361 249.555 236.974 249.555C236.56 249.555 236.227 249.682 235.973 249.936C235.719 250.189 235.592 250.523 235.592 250.937V250.941H234.742V250.937ZM240.787 250.937C240.787 250.312 240.999 249.797 241.422 249.394C241.848 248.99 242.389 248.788 243.043 248.788C243.674 248.788 244.203 248.979 244.63 249.359C245.06 249.737 245.274 250.206 245.274 250.766C245.274 251.133 245.17 251.495 244.962 251.85C244.754 252.204 244.361 252.691 243.785 253.31L242.091 255.131V255.209H245.392V256H240.831V255.395L243.268 252.733C243.72 252.242 244.021 251.868 244.171 251.61C244.321 251.353 244.396 251.083 244.396 250.8C244.396 250.448 244.262 250.154 243.995 249.916C243.731 249.675 243.406 249.555 243.019 249.555C242.605 249.555 242.271 249.682 242.018 249.936C241.764 250.189 241.637 250.523 241.637 250.937V250.941H240.787V250.937ZM249.244 256.166C248.45 256.166 247.835 255.844 247.398 255.199C246.962 254.555 246.744 253.646 246.744 252.475C246.744 251.312 246.964 250.408 247.403 249.76C247.843 249.112 248.456 248.788 249.244 248.788C250.029 248.788 250.639 249.114 251.075 249.765C251.515 250.416 251.734 251.324 251.734 252.489C251.734 253.658 251.516 254.563 251.08 255.204C250.647 255.845 250.035 256.166 249.244 256.166ZM248.043 254.643C248.323 255.147 248.723 255.399 249.244 255.399C249.765 255.399 250.162 255.149 250.436 254.647C250.712 254.143 250.851 253.419 250.851 252.475C250.851 251.54 250.711 250.821 250.431 250.316C250.154 249.812 249.758 249.56 249.244 249.56C248.73 249.56 248.331 249.813 248.048 250.321C247.768 250.826 247.628 251.544 247.628 252.475C247.628 253.415 247.766 254.138 248.043 254.643ZM253.321 257.792H252.691L253.155 255.014H254.088L253.321 257.792ZM257.73 256.166C256.936 256.166 256.321 255.844 255.885 255.199C255.449 254.555 255.23 253.646 255.23 252.475C255.23 251.312 255.45 250.408 255.89 249.76C256.329 249.112 256.943 248.788 257.73 248.788C258.515 248.788 259.125 249.114 259.562 249.765C260.001 250.416 260.221 251.324 260.221 252.489C260.221 253.658 260.003 254.563 259.566 255.204C259.133 255.845 258.521 256.166 257.73 256.166ZM256.529 254.643C256.809 255.147 257.21 255.399 257.73 255.399C258.251 255.399 258.648 255.149 258.922 254.647C259.199 254.143 259.337 253.419 259.337 252.475C259.337 251.54 259.197 250.821 258.917 250.316C258.64 249.812 258.245 249.56 257.73 249.56C257.216 249.56 256.817 249.813 256.534 250.321C256.254 250.826 256.114 251.544 256.114 252.475C256.114 253.415 256.253 254.138 256.529 254.643ZM264.029 256.166C263.235 256.166 262.62 255.844 262.184 255.199C261.747 254.555 261.529 253.646 261.529 252.475C261.529 251.312 261.749 250.408 262.188 249.76C262.628 249.112 263.242 248.788 264.029 248.788C264.814 248.788 265.424 249.114 265.86 249.765C266.3 250.416 266.52 251.324 266.52 252.489C266.52 253.658 266.301 254.563 265.865 255.204C265.432 255.845 264.82 256.166 264.029 256.166ZM262.828 254.643C263.108 255.147 263.508 255.399 264.029 255.399C264.55 255.399 264.947 255.149 265.221 254.647C265.497 254.143 265.636 253.419 265.636 252.475C265.636 251.54 265.496 250.821 265.216 250.316C264.939 249.812 264.544 249.56 264.029 249.56C263.515 249.56 263.116 249.813 262.833 250.321C262.553 250.826 262.413 251.544 262.413 252.475C262.413 253.415 262.551 254.138 262.828 254.643ZM270.328 256.166C269.534 256.166 268.919 255.844 268.482 255.199C268.046 254.555 267.828 253.646 267.828 252.475C267.828 251.312 268.048 250.408 268.487 249.76C268.927 249.112 269.54 248.788 270.328 248.788C271.113 248.788 271.723 249.114 272.159 249.765C272.599 250.416 272.818 251.324 272.818 252.489C272.818 253.658 272.6 254.563 272.164 255.204C271.731 255.845 271.119 256.166 270.328 256.166ZM269.127 254.643C269.407 255.147 269.807 255.399 270.328 255.399C270.849 255.399 271.246 255.149 271.52 254.647C271.796 254.143 271.935 253.419 271.935 252.475C271.935 251.54 271.795 250.821 271.515 250.316C271.238 249.812 270.842 249.56 270.328 249.56C269.814 249.56 269.415 249.813 269.132 250.321C268.852 250.826 268.712 251.544 268.712 252.475C268.712 253.415 268.85 254.138 269.127 254.643ZM281.559 255.209V256H277.193V248.954H281.559V249.745H278.072V252.006H281.378V252.787H278.072V255.209H281.559ZM287.301 250.736V256H286.5V255.175H286.422C286.288 255.471 286.083 255.699 285.807 255.858C285.53 256.015 285.191 256.093 284.791 256.093C284.205 256.093 283.759 255.925 283.453 255.59C283.147 255.255 282.994 254.773 282.994 254.145V250.736H283.834V253.939C283.834 254.418 283.928 254.77 284.117 254.994C284.306 255.215 284.609 255.326 285.025 255.326C285.484 255.326 285.838 255.198 286.085 254.94C286.336 254.68 286.461 254.317 286.461 253.852V250.736H287.301ZM288.883 256V250.736H289.684V251.518H289.762C289.84 251.26 290.016 251.05 290.289 250.888C290.562 250.725 290.873 250.644 291.222 250.644C291.381 250.644 291.521 250.652 291.642 250.668V251.508C291.528 251.475 291.349 251.459 291.104 251.459C290.704 251.459 290.374 251.579 290.113 251.82C289.853 252.061 289.723 252.367 289.723 252.738V256H288.883ZM296.48 255.365C296.048 255.85 295.457 256.093 294.708 256.093C293.959 256.093 293.367 255.85 292.931 255.365C292.498 254.877 292.281 254.211 292.281 253.368C292.281 252.522 292.498 251.856 292.931 251.371C293.364 250.886 293.956 250.644 294.708 250.644C295.46 250.644 296.052 250.886 296.485 251.371C296.918 251.856 297.135 252.522 297.135 253.368C297.135 254.211 296.917 254.877 296.48 255.365ZM293.556 254.823C293.826 255.165 294.21 255.336 294.708 255.336C295.206 255.336 295.59 255.165 295.86 254.823C296.131 254.478 296.266 253.993 296.266 253.368C296.266 252.743 296.131 252.26 295.86 251.918C295.59 251.573 295.206 251.4 294.708 251.4C294.21 251.4 293.826 251.573 293.556 251.918C293.285 252.26 293.15 252.743 293.15 253.368C293.15 253.993 293.285 254.478 293.556 254.823Z" fill="#454545"/>
<path d="M261.485 312.14H257.555L256.925 314H254.24L258.05 303.47H261.02L264.83 314H262.115L261.485 312.14ZM260.825 310.16L259.52 306.305L258.23 310.16H260.825ZM265.48 309.815C265.48 308.945 265.655 308.185 266.005 307.535C266.365 306.885 266.86 306.385 267.49 306.035C268.13 305.685 268.86 305.51 269.68 305.51C270.73 305.51 271.605 305.785 272.305 306.335C273.015 306.885 273.48 307.66 273.7 308.66H270.97C270.74 308.02 270.295 307.7 269.635 307.7C269.165 307.7 268.79 307.885 268.51 308.255C268.23 308.615 268.09 309.135 268.09 309.815C268.09 310.495 268.23 311.02 268.51 311.39C268.79 311.75 269.165 311.93 269.635 311.93C270.295 311.93 270.74 311.61 270.97 310.97H273.7C273.48 311.95 273.015 312.72 272.305 313.28C271.595 313.84 270.72 314.12 269.68 314.12C268.86 314.12 268.13 313.945 267.49 313.595C266.86 313.245 266.365 312.745 266.005 312.095C265.655 311.445 265.48 310.685 265.48 309.815ZM274.562 309.815C274.562 308.945 274.737 308.185 275.087 307.535C275.447 306.885 275.942 306.385 276.572 306.035C277.212 305.685 277.942 305.51 278.762 305.51C279.812 305.51 280.687 305.785 281.387 306.335C282.097 306.885 282.562 307.66 282.782 308.66H280.052C279.822 308.02 279.377 307.7 278.717 307.7C278.247 307.7 277.872 307.885 277.592 308.255C277.312 308.615 277.172 309.135 277.172 309.815C277.172 310.495 277.312 311.02 277.592 311.39C277.872 311.75 278.247 311.93 278.717 311.93C279.377 311.93 279.822 311.61 280.052 310.97H282.782C282.562 311.95 282.097 312.72 281.387 313.28C280.677 313.84 279.802 314.12 278.762 314.12C277.942 314.12 277.212 313.945 276.572 313.595C275.942 313.245 275.447 312.745 275.087 312.095C274.737 311.445 274.562 310.685 274.562 309.815ZM287.964 314.12C287.144 314.12 286.404 313.945 285.744 313.595C285.094 313.245 284.579 312.745 284.199 312.095C283.829 311.445 283.644 310.685 283.644 309.815C283.644 308.955 283.834 308.2 284.214 307.55C284.594 306.89 285.114 306.385 285.774 306.035C286.434 305.685 287.174 305.51 287.994 305.51C288.814 305.51 289.554 305.685 290.214 306.035C290.874 306.385 291.394 306.89 291.774 307.55C292.154 308.2 292.344 308.955 292.344 309.815C292.344 310.675 292.149 311.435 291.759 312.095C291.379 312.745 290.854 313.245 290.184 313.595C289.524 313.945 288.784 314.12 287.964 314.12ZM287.964 311.9C288.454 311.9 288.869 311.72 289.209 311.36C289.559 311 289.734 310.485 289.734 309.815C289.734 309.145 289.564 308.63 289.224 308.27C288.894 307.91 288.484 307.73 287.994 307.73C287.494 307.73 287.079 307.91 286.749 308.27C286.419 308.62 286.254 309.135 286.254 309.815C286.254 310.485 286.414 311 286.734 311.36C287.064 311.72 287.474 311.9 287.964 311.9ZM304.384 305.54C305.424 305.54 306.249 305.855 306.859 306.485C307.479 307.115 307.789 307.99 307.789 309.11V314H305.239V309.455C305.239 308.915 305.094 308.5 304.804 308.21C304.524 307.91 304.134 307.76 303.634 307.76C303.134 307.76 302.739 307.91 302.449 308.21C302.169 308.5 302.029 308.915 302.029 309.455V314H299.479V309.455C299.479 308.915 299.334 308.5 299.044 308.21C298.764 307.91 298.374 307.76 297.874 307.76C297.374 307.76 296.979 307.91 296.689 308.21C296.409 308.5 296.269 308.915 296.269 309.455V314H293.704V305.63H296.269V306.68C296.529 306.33 296.869 306.055 297.289 305.855C297.709 305.645 298.184 305.54 298.714 305.54C299.344 305.54 299.904 305.675 300.394 305.945C300.894 306.215 301.284 306.6 301.564 307.1C301.854 306.64 302.249 306.265 302.749 305.975C303.249 305.685 303.794 305.54 304.384 305.54ZM312.148 306.815C312.398 306.425 312.743 306.11 313.183 305.87C313.623 305.63 314.138 305.51 314.728 305.51C315.418 305.51 316.043 305.685 316.603 306.035C317.163 306.385 317.603 306.885 317.923 307.535C318.253 308.185 318.418 308.94 318.418 309.8C318.418 310.66 318.253 311.42 317.923 312.08C317.603 312.73 317.163 313.235 316.603 313.595C316.043 313.945 315.418 314.12 314.728 314.12C314.148 314.12 313.633 314 313.183 313.76C312.743 313.52 312.398 313.21 312.148 312.83V317.99H309.583V305.63H312.148V306.815ZM315.808 309.8C315.808 309.16 315.628 308.66 315.268 308.3C314.918 307.93 314.483 307.745 313.963 307.745C313.453 307.745 313.018 307.93 312.658 308.3C312.308 308.67 312.133 309.175 312.133 309.815C312.133 310.455 312.308 310.96 312.658 311.33C313.018 311.7 313.453 311.885 313.963 311.885C314.473 311.885 314.908 311.7 315.268 311.33C315.628 310.95 315.808 310.44 315.808 309.8ZM322.329 302.9V314H319.764V302.9H322.329ZM325.478 304.76C325.028 304.76 324.658 304.63 324.368 304.37C324.088 304.1 323.948 303.77 323.948 303.38C323.948 302.98 324.088 302.65 324.368 302.39C324.658 302.12 325.028 301.985 325.478 301.985C325.918 301.985 326.278 302.12 326.558 302.39C326.848 302.65 326.993 302.98 326.993 303.38C326.993 303.77 326.848 304.1 326.558 304.37C326.278 304.63 325.918 304.76 325.478 304.76ZM326.753 305.63V314H324.188V305.63H326.753ZM332.017 314.12C331.287 314.12 330.637 313.995 330.067 313.745C329.497 313.495 329.047 313.155 328.717 312.725C328.387 312.285 328.202 311.795 328.162 311.255H330.697C330.727 311.545 330.862 311.78 331.102 311.96C331.342 312.14 331.637 312.23 331.987 312.23C332.307 312.23 332.552 312.17 332.722 312.05C332.902 311.92 332.992 311.755 332.992 311.555C332.992 311.315 332.867 311.14 332.617 311.03C332.367 310.91 331.962 310.78 331.402 310.64C330.802 310.5 330.302 310.355 329.902 310.205C329.502 310.045 329.157 309.8 328.867 309.47C328.577 309.13 328.432 308.675 328.432 308.105C328.432 307.625 328.562 307.19 328.822 306.8C329.092 306.4 329.482 306.085 329.992 305.855C330.512 305.625 331.127 305.51 331.837 305.51C332.887 305.51 333.712 305.77 334.312 306.29C334.922 306.81 335.272 307.5 335.362 308.36H332.992C332.952 308.07 332.822 307.84 332.602 307.67C332.392 307.5 332.112 307.415 331.762 307.415C331.462 307.415 331.232 307.475 331.072 307.595C330.912 307.705 330.832 307.86 330.832 308.06C330.832 308.3 330.957 308.48 331.207 308.6C331.467 308.72 331.867 308.84 332.407 308.96C333.027 309.12 333.532 309.28 333.922 309.44C334.312 309.59 334.652 309.84 334.942 310.19C335.242 310.53 335.397 310.99 335.407 311.57C335.407 312.06 335.267 312.5 334.987 312.89C334.717 313.27 334.322 313.57 333.802 313.79C333.292 314.01 332.697 314.12 332.017 314.12Z" fill="#0F6AFF"/>
<path d="M254.742 323.937C254.742 323.312 254.954 322.797 255.377 322.394C255.803 321.99 256.344 321.788 256.998 321.788C257.63 321.788 258.159 321.979 258.585 322.359C259.015 322.737 259.229 323.206 259.229 323.766C259.229 324.133 259.125 324.495 258.917 324.85C258.709 325.204 258.316 325.691 257.74 326.31L256.046 328.131V328.209H259.347V329H254.786V328.395L257.223 325.733C257.675 325.242 257.976 324.868 258.126 324.61C258.276 324.353 258.351 324.083 258.351 323.8C258.351 323.448 258.217 323.154 257.95 322.916C257.687 322.675 257.361 322.555 256.974 322.555C256.56 322.555 256.227 322.682 255.973 322.936C255.719 323.189 255.592 323.523 255.592 323.937V323.941H254.742V323.937ZM263.199 329.166C262.405 329.166 261.79 328.844 261.354 328.199C260.917 327.555 260.699 326.646 260.699 325.475C260.699 324.312 260.919 323.408 261.358 322.76C261.798 322.112 262.411 321.788 263.199 321.788C263.984 321.788 264.594 322.114 265.03 322.765C265.47 323.416 265.689 324.324 265.689 325.489C265.689 326.658 265.471 327.563 265.035 328.204C264.602 328.845 263.99 329.166 263.199 329.166ZM261.998 327.643C262.278 328.147 262.678 328.399 263.199 328.399C263.72 328.399 264.117 328.149 264.391 327.647C264.667 327.143 264.806 326.419 264.806 325.475C264.806 324.54 264.666 323.821 264.386 323.316C264.109 322.812 263.714 322.56 263.199 322.56C262.685 322.56 262.286 322.813 262.003 323.321C261.723 323.826 261.583 324.544 261.583 325.475C261.583 326.415 261.721 327.138 261.998 327.643ZM269.498 329.166C268.704 329.166 268.089 328.844 267.652 328.199C267.216 327.555 266.998 326.646 266.998 325.475C266.998 324.312 267.218 323.408 267.657 322.76C268.097 322.112 268.71 321.788 269.498 321.788C270.283 321.788 270.893 322.114 271.329 322.765C271.769 323.416 271.988 324.324 271.988 325.489C271.988 326.658 271.77 327.563 271.334 328.204C270.901 328.845 270.289 329.166 269.498 329.166ZM268.297 327.643C268.577 328.147 268.977 328.399 269.498 328.399C270.019 328.399 270.416 328.149 270.689 327.647C270.966 327.143 271.104 326.419 271.104 325.475C271.104 324.54 270.965 323.821 270.685 323.316C270.408 322.812 270.012 322.56 269.498 322.56C268.984 322.56 268.585 322.813 268.302 323.321C268.022 323.826 267.882 324.544 267.882 325.475C267.882 326.415 268.02 327.138 268.297 327.643ZM273.575 330.792H272.945L273.409 328.014H274.342L273.575 330.792ZM277.984 329.166C277.19 329.166 276.575 328.844 276.139 328.199C275.702 327.555 275.484 326.646 275.484 325.475C275.484 324.312 275.704 323.408 276.144 322.76C276.583 322.112 277.197 321.788 277.984 321.788C278.769 321.788 279.379 322.114 279.815 322.765C280.255 323.416 280.475 324.324 280.475 325.489C280.475 326.658 280.257 327.563 279.82 328.204C279.387 328.845 278.775 329.166 277.984 329.166ZM276.783 327.643C277.063 328.147 277.464 328.399 277.984 328.399C278.505 328.399 278.902 328.149 279.176 327.647C279.452 327.143 279.591 326.419 279.591 325.475C279.591 324.54 279.451 323.821 279.171 323.316C278.894 322.812 278.499 322.56 277.984 322.56C277.47 322.56 277.071 322.813 276.788 323.321C276.508 323.826 276.368 324.544 276.368 325.475C276.368 326.415 276.507 327.138 276.783 327.643ZM284.283 329.166C283.489 329.166 282.874 328.844 282.438 328.199C282.001 327.555 281.783 326.646 281.783 325.475C281.783 324.312 282.003 323.408 282.442 322.76C282.882 322.112 283.495 321.788 284.283 321.788C285.068 321.788 285.678 322.114 286.114 322.765C286.554 323.416 286.773 324.324 286.773 325.489C286.773 326.658 286.555 327.563 286.119 328.204C285.686 328.845 285.074 329.166 284.283 329.166ZM283.082 327.643C283.362 328.147 283.762 328.399 284.283 328.399C284.804 328.399 285.201 328.149 285.475 327.647C285.751 327.143 285.89 326.419 285.89 325.475C285.89 324.54 285.75 323.821 285.47 323.316C285.193 322.812 284.798 322.56 284.283 322.56C283.769 322.56 283.37 322.813 283.087 323.321C282.807 323.826 282.667 324.544 282.667 325.475C282.667 326.415 282.805 327.138 283.082 327.643ZM290.582 329.166C289.788 329.166 289.173 328.844 288.736 328.199C288.3 327.555 288.082 326.646 288.082 325.475C288.082 324.312 288.302 323.408 288.741 322.76C289.181 322.112 289.794 321.788 290.582 321.788C291.367 321.788 291.977 322.114 292.413 322.765C292.853 323.416 293.072 324.324 293.072 325.489C293.072 326.658 292.854 327.563 292.418 328.204C291.985 328.845 291.373 329.166 290.582 329.166ZM289.381 327.643C289.661 328.147 290.061 328.399 290.582 328.399C291.103 328.399 291.5 328.149 291.773 327.647C292.05 327.143 292.188 326.419 292.188 325.475C292.188 324.54 292.049 323.821 291.769 323.316C291.492 322.812 291.096 322.56 290.582 322.56C290.068 322.56 289.669 322.813 289.386 323.321C289.106 323.826 288.966 324.544 288.966 325.475C288.966 326.415 289.104 327.138 289.381 327.643ZM301.812 328.209V329H297.447V321.954H301.812V322.745H298.326V325.006H301.632V325.787H298.326V328.209H301.812ZM307.555 323.736V329H306.754V328.175H306.676C306.542 328.471 306.337 328.699 306.061 328.858C305.784 329.015 305.445 329.093 305.045 329.093C304.459 329.093 304.013 328.925 303.707 328.59C303.401 328.255 303.248 327.773 303.248 327.145V323.736H304.088V326.939C304.088 327.418 304.182 327.77 304.371 327.994C304.56 328.215 304.863 328.326 305.279 328.326C305.738 328.326 306.091 328.198 306.339 327.94C306.59 327.68 306.715 327.317 306.715 326.852V323.736H307.555ZM309.137 329V323.736H309.938V324.518H310.016C310.094 324.26 310.27 324.05 310.543 323.888C310.816 323.725 311.127 323.644 311.476 323.644C311.635 323.644 311.775 323.652 311.896 323.668V324.508C311.782 324.475 311.603 324.459 311.358 324.459C310.958 324.459 310.628 324.579 310.367 324.82C310.107 325.061 309.977 325.367 309.977 325.738V329H309.137ZM316.734 328.365C316.301 328.85 315.711 329.093 314.962 329.093C314.213 329.093 313.621 328.85 313.185 328.365C312.752 327.877 312.535 327.211 312.535 326.368C312.535 325.522 312.752 324.856 313.185 324.371C313.618 323.886 314.21 323.644 314.962 323.644C315.714 323.644 316.306 323.886 316.739 324.371C317.172 324.856 317.389 325.522 317.389 326.368C317.389 327.211 317.171 327.877 316.734 328.365ZM313.81 327.823C314.08 328.165 314.464 328.336 314.962 328.336C315.46 328.336 315.844 328.165 316.114 327.823C316.384 327.478 316.52 326.993 316.52 326.368C316.52 325.743 316.384 325.26 316.114 324.918C315.844 324.573 315.46 324.4 314.962 324.4C314.464 324.4 314.08 324.573 313.81 324.918C313.539 325.26 313.404 325.743 313.404 326.368C313.404 326.993 313.539 327.478 313.81 327.823Z" fill="#454545"/>
<path d="M260.3 363L258.11 359.025H257.495V363H254.93V352.47H259.235C260.065 352.47 260.77 352.615 261.35 352.905C261.94 353.195 262.38 353.595 262.67 354.105C262.96 354.605 263.105 355.165 263.105 355.785C263.105 356.485 262.905 357.11 262.505 357.66C262.115 358.21 261.535 358.6 260.765 358.83L263.195 363H260.3ZM257.495 357.21H259.085C259.555 357.21 259.905 357.095 260.135 356.865C260.375 356.635 260.495 356.31 260.495 355.89C260.495 355.49 260.375 355.175 260.135 354.945C259.905 354.715 259.555 354.6 259.085 354.6H257.495V357.21ZM272.605 358.68C272.605 358.92 272.59 359.17 272.56 359.43H266.755C266.795 359.95 266.96 360.35 267.25 360.63C267.55 360.9 267.915 361.035 268.345 361.035C268.985 361.035 269.43 360.765 269.68 360.225H272.41C272.27 360.775 272.015 361.27 271.645 361.71C271.285 362.15 270.83 362.495 270.28 362.745C269.73 362.995 269.115 363.12 268.435 363.12C267.615 363.12 266.885 362.945 266.245 362.595C265.605 362.245 265.105 361.745 264.745 361.095C264.385 360.445 264.205 359.685 264.205 358.815C264.205 357.945 264.38 357.185 264.73 356.535C265.09 355.885 265.59 355.385 266.23 355.035C266.87 354.685 267.605 354.51 268.435 354.51C269.245 354.51 269.965 354.68 270.595 355.02C271.225 355.36 271.715 355.845 272.065 356.475C272.425 357.105 272.605 357.84 272.605 358.68ZM269.98 358.005C269.98 357.565 269.83 357.215 269.53 356.955C269.23 356.695 268.855 356.565 268.405 356.565C267.975 356.565 267.61 356.69 267.31 356.94C267.02 357.19 266.84 357.545 266.77 358.005H269.98ZM277.363 363.12C276.633 363.12 275.983 362.995 275.413 362.745C274.843 362.495 274.393 362.155 274.063 361.725C273.733 361.285 273.548 360.795 273.508 360.255H276.043C276.073 360.545 276.208 360.78 276.448 360.96C276.688 361.14 276.983 361.23 277.333 361.23C277.653 361.23 277.898 361.17 278.068 361.05C278.248 360.92 278.338 360.755 278.338 360.555C278.338 360.315 278.213 360.14 277.963 360.03C277.713 359.91 277.308 359.78 276.748 359.64C276.148 359.5 275.648 359.355 275.248 359.205C274.848 359.045 274.503 358.8 274.213 358.47C273.923 358.13 273.778 357.675 273.778 357.105C273.778 356.625 273.908 356.19 274.168 355.8C274.438 355.4 274.828 355.085 275.338 354.855C275.858 354.625 276.473 354.51 277.183 354.51C278.233 354.51 279.058 354.77 279.658 355.29C280.268 355.81 280.618 356.5 280.708 357.36H278.338C278.298 357.07 278.168 356.84 277.948 356.67C277.738 356.5 277.458 356.415 277.108 356.415C276.808 356.415 276.578 356.475 276.418 356.595C276.258 356.705 276.178 356.86 276.178 357.06C276.178 357.3 276.303 357.48 276.553 357.6C276.813 357.72 277.213 357.84 277.753 357.96C278.373 358.12 278.878 358.28 279.268 358.44C279.658 358.59 279.998 358.84 280.288 359.19C280.588 359.53 280.743 359.99 280.753 360.57C280.753 361.06 280.613 361.5 280.333 361.89C280.063 362.27 279.668 362.57 279.148 362.79C278.638 363.01 278.043 363.12 277.363 363.12ZM286.988 360.825V363H285.683C284.753 363 284.028 362.775 283.508 362.325C282.988 361.865 282.728 361.12 282.728 360.09V356.76H281.708V354.63H282.728V352.59H285.293V354.63H286.973V356.76H285.293V360.12C285.293 360.37 285.353 360.55 285.473 360.66C285.593 360.77 285.793 360.825 286.073 360.825H286.988ZM287.906 358.8C287.906 357.94 288.066 357.185 288.386 356.535C288.716 355.885 289.161 355.385 289.721 355.035C290.281 354.685 290.906 354.51 291.596 354.51C292.186 354.51 292.701 354.63 293.141 354.87C293.591 355.11 293.936 355.425 294.176 355.815V354.63H296.741V363H294.176V361.815C293.926 362.205 293.576 362.52 293.126 362.76C292.686 363 292.171 363.12 291.581 363.12C290.901 363.12 290.281 362.945 289.721 362.595C289.161 362.235 288.716 361.73 288.386 361.08C288.066 360.42 287.906 359.66 287.906 358.8ZM294.176 358.815C294.176 358.175 293.996 357.67 293.636 357.3C293.286 356.93 292.856 356.745 292.346 356.745C291.836 356.745 291.401 356.93 291.041 357.3C290.691 357.66 290.516 358.16 290.516 358.8C290.516 359.44 290.691 359.95 291.041 360.33C291.401 360.7 291.836 360.885 292.346 360.885C292.856 360.885 293.286 360.7 293.636 360.33C293.996 359.96 294.176 359.455 294.176 358.815ZM303.697 354.54C304.677 354.54 305.457 354.86 306.037 355.5C306.627 356.13 306.922 357 306.922 358.11V363H304.372V358.455C304.372 357.895 304.227 357.46 303.937 357.15C303.647 356.84 303.257 356.685 302.767 356.685C302.277 356.685 301.887 356.84 301.597 357.15C301.307 357.46 301.162 357.895 301.162 358.455V363H298.597V354.63H301.162V355.74C301.422 355.37 301.772 355.08 302.212 354.87C302.652 354.65 303.147 354.54 303.697 354.54ZM313.369 360.825V363H312.064C311.134 363 310.409 362.775 309.889 362.325C309.369 361.865 309.109 361.12 309.109 360.09V356.76H308.089V354.63H309.109V352.59H311.674V354.63H313.354V356.76H311.674V360.12C311.674 360.37 311.734 360.55 311.854 360.66C311.974 360.77 312.174 360.825 312.454 360.825H313.369Z" fill="#0F6AFF"/>
<path d="M254.742 373.937C254.742 373.312 254.954 372.797 255.377 372.394C255.803 371.99 256.344 371.788 256.998 371.788C257.63 371.788 258.159 371.979 258.585 372.359C259.015 372.737 259.229 373.206 259.229 373.766C259.229 374.133 259.125 374.495 258.917 374.85C258.709 375.204 258.316 375.691 257.74 376.31L256.046 378.131V378.209H259.347V379H254.786V378.395L257.223 375.733C257.675 375.242 257.976 374.868 258.126 374.61C258.276 374.353 258.351 374.083 258.351 373.8C258.351 373.448 258.217 373.154 257.95 372.916C257.687 372.675 257.361 372.555 256.974 372.555C256.56 372.555 256.227 372.682 255.973 372.936C255.719 373.189 255.592 373.523 255.592 373.937V373.941H254.742V373.937ZM263.199 379.166C262.405 379.166 261.79 378.844 261.354 378.199C260.917 377.555 260.699 376.646 260.699 375.475C260.699 374.312 260.919 373.408 261.358 372.76C261.798 372.112 262.411 371.788 263.199 371.788C263.984 371.788 264.594 372.114 265.03 372.765C265.47 373.416 265.689 374.324 265.689 375.489C265.689 376.658 265.471 377.563 265.035 378.204C264.602 378.845 263.99 379.166 263.199 379.166ZM261.998 377.643C262.278 378.147 262.678 378.399 263.199 378.399C263.72 378.399 264.117 378.149 264.391 377.647C264.667 377.143 264.806 376.419 264.806 375.475C264.806 374.54 264.666 373.821 264.386 373.316C264.109 372.812 263.714 372.56 263.199 372.56C262.685 372.56 262.286 372.813 262.003 373.321C261.723 373.826 261.583 374.544 261.583 375.475C261.583 376.415 261.721 377.138 261.998 377.643ZM267.276 380.792H266.646L267.11 378.014H268.043L267.276 380.792ZM271.686 379.166C270.891 379.166 270.276 378.844 269.84 378.199C269.404 377.555 269.186 376.646 269.186 375.475C269.186 374.312 269.405 373.408 269.845 372.76C270.284 372.112 270.898 371.788 271.686 371.788C272.47 371.788 273.08 372.114 273.517 372.765C273.956 373.416 274.176 374.324 274.176 375.489C274.176 376.658 273.958 377.563 273.521 378.204C273.089 378.845 272.477 379.166 271.686 379.166ZM270.484 377.643C270.764 378.147 271.165 378.399 271.686 378.399C272.206 378.399 272.604 378.149 272.877 377.647C273.154 377.143 273.292 376.419 273.292 375.475C273.292 374.54 273.152 373.821 272.872 373.316C272.595 372.812 272.2 372.56 271.686 372.56C271.171 372.56 270.772 372.813 270.489 373.321C270.209 373.826 270.069 374.544 270.069 375.475C270.069 376.415 270.208 377.138 270.484 377.643ZM277.984 379.166C277.19 379.166 276.575 378.844 276.139 378.199C275.702 377.555 275.484 376.646 275.484 375.475C275.484 374.312 275.704 373.408 276.144 372.76C276.583 372.112 277.197 371.788 277.984 371.788C278.769 371.788 279.379 372.114 279.815 372.765C280.255 373.416 280.475 374.324 280.475 375.489C280.475 376.658 280.257 377.563 279.82 378.204C279.387 378.845 278.775 379.166 277.984 379.166ZM276.783 377.643C277.063 378.147 277.464 378.399 277.984 378.399C278.505 378.399 278.902 378.149 279.176 377.647C279.452 377.143 279.591 376.419 279.591 375.475C279.591 374.54 279.451 373.821 279.171 373.316C278.894 372.812 278.499 372.56 277.984 372.56C277.47 372.56 277.071 372.813 276.788 373.321C276.508 373.826 276.368 374.544 276.368 375.475C276.368 376.415 276.507 377.138 276.783 377.643ZM284.283 379.166C283.489 379.166 282.874 378.844 282.438 378.199C282.001 377.555 281.783 376.646 281.783 375.475C281.783 374.312 282.003 373.408 282.442 372.76C282.882 372.112 283.495 371.788 284.283 371.788C285.068 371.788 285.678 372.114 286.114 372.765C286.554 373.416 286.773 374.324 286.773 375.489C286.773 376.658 286.555 377.563 286.119 378.204C285.686 378.845 285.074 379.166 284.283 379.166ZM283.082 377.643C283.362 378.147 283.762 378.399 284.283 378.399C284.804 378.399 285.201 378.149 285.475 377.647C285.751 377.143 285.89 376.419 285.89 375.475C285.89 374.54 285.75 373.821 285.47 373.316C285.193 372.812 284.798 372.56 284.283 372.56C283.769 372.56 283.37 372.813 283.087 373.321C282.807 373.826 282.667 374.544 282.667 375.475C282.667 376.415 282.805 377.138 283.082 377.643ZM295.514 378.209V379H291.148V371.954H295.514V372.745H292.027V375.006H295.333V375.787H292.027V378.209H295.514ZM301.256 373.736V379H300.455V378.175H300.377C300.243 378.471 300.038 378.699 299.762 378.858C299.485 379.015 299.146 379.093 298.746 379.093C298.16 379.093 297.714 378.925 297.408 378.59C297.102 378.255 296.949 377.773 296.949 377.145V373.736H297.789V376.939C297.789 377.418 297.883 377.77 298.072 377.994C298.261 378.215 298.564 378.326 298.98 378.326C299.439 378.326 299.793 378.198 300.04 377.94C300.291 377.68 300.416 377.317 300.416 376.852V373.736H301.256ZM302.838 379V373.736H303.639V374.518H303.717C303.795 374.26 303.971 374.05 304.244 373.888C304.518 373.725 304.828 373.644 305.177 373.644C305.336 373.644 305.476 373.652 305.597 373.668V374.508C305.483 374.475 305.304 374.459 305.06 374.459C304.659 374.459 304.329 374.579 304.068 374.82C303.808 375.061 303.678 375.367 303.678 375.738V379H302.838ZM310.436 378.365C310.003 378.85 309.412 379.093 308.663 379.093C307.914 379.093 307.322 378.85 306.886 378.365C306.453 377.877 306.236 377.211 306.236 376.368C306.236 375.522 306.453 374.856 306.886 374.371C307.319 373.886 307.911 373.644 308.663 373.644C309.415 373.644 310.007 373.886 310.44 374.371C310.873 374.856 311.09 375.522 311.09 376.368C311.09 377.211 310.872 377.877 310.436 378.365ZM307.511 377.823C307.781 378.165 308.165 378.336 308.663 378.336C309.161 378.336 309.545 378.165 309.815 377.823C310.086 377.478 310.221 376.993 310.221 376.368C310.221 375.743 310.086 375.26 309.815 374.918C309.545 374.573 309.161 374.4 308.663 374.4C308.165 374.4 307.781 374.573 307.511 374.918C307.241 375.26 307.105 375.743 307.105 376.368C307.105 376.993 307.241 377.478 307.511 377.823Z" fill="#454545"/>
<circle cx="550.5" cy="231.5" r="2.5" fill="#454545"/>
<circle cx="560.5" cy="231.5" r="2.5" fill="#454545"/>
<circle cx="570.5" cy="231.5" r="2.5" fill="#454545"/>
<g filter="url(#filter1_d)">
<rect x="76" y="410" width="274" height="207" rx="30" fill="white"/>
</g>
<path d="M123.324 561.52H118.46L117.564 564H116.028L120.06 552.912H121.74L125.756 564H124.22L123.324 561.52ZM122.908 560.336L120.892 554.704L118.876 560.336H122.908ZM135.289 555.232V564H133.833V562.704C133.556 563.152 133.167 563.504 132.665 563.76C132.175 564.005 131.631 564.128 131.033 564.128C130.351 564.128 129.737 563.989 129.193 563.712C128.649 563.424 128.217 562.997 127.897 562.432C127.588 561.867 127.433 561.179 127.433 560.368V555.232H128.873V560.176C128.873 561.04 129.092 561.707 129.529 562.176C129.967 562.635 130.564 562.864 131.321 562.864C132.1 562.864 132.713 562.624 133.161 562.144C133.609 561.664 133.833 560.965 133.833 560.048V555.232H135.289ZM141.364 555.088C142.121 555.088 142.782 555.253 143.348 555.584C143.924 555.915 144.35 556.331 144.628 556.832V555.232H146.1V564.192C146.1 564.992 145.929 565.701 145.588 566.32C145.246 566.949 144.756 567.44 144.116 567.792C143.486 568.144 142.75 568.32 141.908 568.32C140.756 568.32 139.796 568.048 139.028 567.504C138.26 566.96 137.806 566.219 137.668 565.28H139.108C139.268 565.813 139.598 566.24 140.1 566.56C140.601 566.891 141.204 567.056 141.908 567.056C142.708 567.056 143.358 566.805 143.86 566.304C144.372 565.803 144.628 565.099 144.628 564.192V562.352C144.34 562.864 143.913 563.291 143.348 563.632C142.782 563.973 142.121 564.144 141.364 564.144C140.585 564.144 139.876 563.952 139.236 563.568C138.606 563.184 138.11 562.645 137.748 561.952C137.385 561.259 137.204 560.469 137.204 559.584C137.204 558.688 137.385 557.904 137.748 557.232C138.11 556.549 138.606 556.021 139.236 555.648C139.876 555.275 140.585 555.088 141.364 555.088ZM144.628 559.6C144.628 558.939 144.494 558.363 144.228 557.872C143.961 557.381 143.598 557.008 143.14 556.752C142.692 556.485 142.196 556.352 141.652 556.352C141.108 556.352 140.612 556.48 140.164 556.736C139.716 556.992 139.358 557.365 139.092 557.856C138.825 558.347 138.692 558.923 138.692 559.584C138.692 560.256 138.825 560.843 139.092 561.344C139.358 561.835 139.716 562.213 140.164 562.48C140.612 562.736 141.108 562.864 141.652 562.864C142.196 562.864 142.692 562.736 143.14 562.48C143.598 562.213 143.961 561.835 144.228 561.344C144.494 560.843 144.628 560.261 144.628 559.6ZM156.56 559.28C156.56 559.557 156.544 559.851 156.512 560.16H149.504C149.557 561.024 149.851 561.701 150.384 562.192C150.928 562.672 151.584 562.912 152.352 562.912C152.981 562.912 153.504 562.768 153.92 562.48C154.347 562.181 154.645 561.787 154.816 561.296H156.384C156.149 562.139 155.68 562.827 154.976 563.36C154.272 563.883 153.397 564.144 152.352 564.144C151.52 564.144 150.773 563.957 150.112 563.584C149.461 563.211 148.949 562.683 148.576 562C148.203 561.307 148.016 560.507 148.016 559.6C148.016 558.693 148.197 557.899 148.56 557.216C148.923 556.533 149.429 556.011 150.08 555.648C150.741 555.275 151.499 555.088 152.352 555.088C153.184 555.088 153.92 555.269 154.56 555.632C155.2 555.995 155.691 556.496 156.032 557.136C156.384 557.765 156.56 558.48 156.56 559.28ZM155.056 558.976C155.056 558.421 154.933 557.947 154.688 557.552C154.443 557.147 154.107 556.843 153.68 556.64C153.264 556.427 152.8 556.32 152.288 556.32C151.552 556.32 150.923 556.555 150.4 557.024C149.888 557.493 149.595 558.144 149.52 558.976H155.056ZM169.026 555.072C169.709 555.072 170.317 555.216 170.85 555.504C171.383 555.781 171.805 556.203 172.114 556.768C172.423 557.333 172.578 558.021 172.578 558.832V564H171.138V559.04C171.138 558.165 170.919 557.499 170.482 557.04C170.055 556.571 169.474 556.336 168.738 556.336C167.981 556.336 167.378 556.581 166.93 557.072C166.482 557.552 166.258 558.251 166.258 559.168V564H164.818V559.04C164.818 558.165 164.599 557.499 164.162 557.04C163.735 556.571 163.154 556.336 162.418 556.336C161.661 556.336 161.058 556.581 160.61 557.072C160.162 557.552 159.938 558.251 159.938 559.168V564H158.482V555.232H159.938V556.496C160.226 556.037 160.61 555.685 161.09 555.44C161.581 555.195 162.119 555.072 162.706 555.072C163.442 555.072 164.093 555.237 164.658 555.568C165.223 555.899 165.645 556.384 165.922 557.024C166.167 556.405 166.573 555.925 167.138 555.584C167.703 555.243 168.333 555.072 169.026 555.072ZM182.966 559.28C182.966 559.557 182.95 559.851 182.918 560.16H175.91C175.964 561.024 176.257 561.701 176.79 562.192C177.334 562.672 177.99 562.912 178.758 562.912C179.388 562.912 179.91 562.768 180.326 562.48C180.753 562.181 181.052 561.787 181.222 561.296H182.79C182.556 562.139 182.086 562.827 181.382 563.36C180.678 563.883 179.804 564.144 178.758 564.144C177.926 564.144 177.18 563.957 176.518 563.584C175.868 563.211 175.356 562.683 174.982 562C174.609 561.307 174.422 560.507 174.422 559.6C174.422 558.693 174.604 557.899 174.966 557.216C175.329 556.533 175.836 556.011 176.486 555.648C177.148 555.275 177.905 555.088 178.758 555.088C179.59 555.088 180.326 555.269 180.966 555.632C181.606 555.995 182.097 556.496 182.438 557.136C182.79 557.765 182.966 558.48 182.966 559.28ZM181.462 558.976C181.462 558.421 181.34 557.947 181.094 557.552C180.849 557.147 180.513 556.843 180.086 556.64C179.67 556.427 179.206 556.32 178.694 556.32C177.958 556.32 177.329 556.555 176.806 557.024C176.294 557.493 176.001 558.144 175.926 558.976H181.462ZM189.16 555.072C190.227 555.072 191.091 555.397 191.752 556.048C192.414 556.688 192.744 557.616 192.744 558.832V564H191.304V559.04C191.304 558.165 191.086 557.499 190.648 557.04C190.211 556.571 189.614 556.336 188.856 556.336C188.088 556.336 187.475 556.576 187.016 557.056C186.568 557.536 186.344 558.235 186.344 559.152V564H184.888V555.232H186.344V556.48C186.632 556.032 187.022 555.685 187.512 555.44C188.014 555.195 188.563 555.072 189.16 555.072ZM196.899 556.432V561.6C196.899 562.027 196.989 562.331 197.171 562.512C197.352 562.683 197.667 562.768 198.115 562.768H199.187V564H197.875C197.064 564 196.456 563.813 196.051 563.44C195.645 563.067 195.443 562.453 195.443 561.6V556.432H194.307V555.232H195.443V553.024H196.899V555.232H199.187V556.432H196.899ZM208.951 559.28C208.951 559.557 208.935 559.851 208.903 560.16H201.895C201.948 561.024 202.241 561.701 202.775 562.192C203.319 562.672 203.975 562.912 204.743 562.912C205.372 562.912 205.895 562.768 206.311 562.48C206.737 562.181 207.036 561.787 207.207 561.296H208.775C208.54 562.139 208.071 562.827 207.367 563.36C206.663 563.883 205.788 564.144 204.743 564.144C203.911 564.144 203.164 563.957 202.503 563.584C201.852 563.211 201.34 562.683 200.967 562C200.593 561.307 200.407 560.507 200.407 559.6C200.407 558.693 200.588 557.899 200.951 557.216C201.313 556.533 201.82 556.011 202.471 555.648C203.132 555.275 203.889 555.088 204.743 555.088C205.575 555.088 206.311 555.269 206.951 555.632C207.591 555.995 208.081 556.496 208.423 557.136C208.775 557.765 208.951 558.48 208.951 559.28ZM207.447 558.976C207.447 558.421 207.324 557.947 207.079 557.552C206.833 557.147 206.497 556.843 206.071 556.64C205.655 556.427 205.191 556.32 204.679 556.32C203.943 556.32 203.313 556.555 202.791 557.024C202.279 557.493 201.985 558.144 201.911 558.976H207.447ZM212.329 556.656C212.585 556.155 212.947 555.765 213.417 555.488C213.897 555.211 214.478 555.072 215.161 555.072V556.576H214.777C213.145 556.576 212.329 557.461 212.329 559.232V564H210.873V555.232H212.329V556.656ZM220.563 559.584C220.563 558.688 220.744 557.904 221.107 557.232C221.47 556.549 221.966 556.021 222.595 555.648C223.235 555.275 223.95 555.088 224.739 555.088C225.422 555.088 226.056 555.248 226.643 555.568C227.23 555.877 227.678 556.288 227.987 556.8V552.16H229.459V564H227.987V562.352C227.699 562.875 227.272 563.307 226.707 563.648C226.142 563.979 225.48 564.144 224.723 564.144C223.944 564.144 223.235 563.952 222.595 563.568C221.966 563.184 221.47 562.645 221.107 561.952C220.744 561.259 220.563 560.469 220.563 559.584ZM227.987 559.6C227.987 558.939 227.854 558.363 227.587 557.872C227.32 557.381 226.958 557.008 226.499 556.752C226.051 556.485 225.555 556.352 225.011 556.352C224.467 556.352 223.971 556.48 223.523 556.736C223.075 556.992 222.718 557.365 222.451 557.856C222.184 558.347 222.051 558.923 222.051 559.584C222.051 560.256 222.184 560.843 222.451 561.344C222.718 561.835 223.075 562.213 223.523 562.48C223.971 562.736 224.467 562.864 225.011 562.864C225.555 562.864 226.051 562.736 226.499 562.48C226.958 562.213 227.32 561.835 227.587 561.344C227.854 560.843 227.987 560.261 227.987 559.6ZM239.92 559.28C239.92 559.557 239.904 559.851 239.872 560.16H232.864C232.917 561.024 233.21 561.701 233.744 562.192C234.288 562.672 234.944 562.912 235.712 562.912C236.341 562.912 236.864 562.768 237.28 562.48C237.706 562.181 238.005 561.787 238.176 561.296H239.744C239.509 562.139 239.04 562.827 238.336 563.36C237.632 563.883 236.757 564.144 235.712 564.144C234.88 564.144 234.133 563.957 233.472 563.584C232.821 563.211 232.309 562.683 231.936 562C231.562 561.307 231.376 560.507 231.376 559.6C231.376 558.693 231.557 557.899 231.92 557.216C232.282 556.533 232.789 556.011 233.44 555.648C234.101 555.275 234.858 555.088 235.712 555.088C236.544 555.088 237.28 555.269 237.92 555.632C238.56 555.995 239.05 556.496 239.392 557.136C239.744 557.765 239.92 558.48 239.92 559.28ZM238.416 558.976C238.416 558.421 238.293 557.947 238.048 557.552C237.802 557.147 237.466 556.843 237.04 556.64C236.624 556.427 236.16 556.32 235.648 556.32C234.912 556.32 234.282 556.555 233.76 557.024C233.248 557.493 232.954 558.144 232.88 558.976H238.416ZM245.515 561.424V560.32L251.131 552.544H252.875V560.16H254.475V561.424H252.875V564H251.435V561.424H245.515ZM251.499 554.064L247.195 560.16H251.499V554.064ZM255.898 555.344C255.972 554.363 256.351 553.595 257.034 553.04C257.716 552.485 258.602 552.208 259.69 552.208C260.415 552.208 261.039 552.341 261.562 552.608C262.095 552.864 262.495 553.216 262.762 553.664C263.039 554.112 263.178 554.619 263.178 555.184C263.178 555.845 262.986 556.416 262.602 556.896C262.228 557.376 261.738 557.685 261.13 557.824V557.904C261.823 558.075 262.372 558.411 262.778 558.912C263.183 559.413 263.385 560.069 263.385 560.88C263.385 561.488 263.247 562.037 262.97 562.528C262.692 563.008 262.276 563.387 261.722 563.664C261.167 563.941 260.5 564.08 259.722 564.08C258.591 564.08 257.663 563.787 256.938 563.2C256.212 562.603 255.807 561.76 255.722 560.672H257.13C257.204 561.312 257.466 561.835 257.914 562.24C258.362 562.645 258.959 562.848 259.706 562.848C260.452 562.848 261.018 562.656 261.402 562.272C261.796 561.877 261.994 561.371 261.994 560.752C261.994 559.952 261.727 559.376 261.194 559.024C260.66 558.672 259.855 558.496 258.778 558.496H258.41V557.28H258.794C259.775 557.269 260.516 557.109 261.018 556.8C261.519 556.48 261.77 555.989 261.77 555.328C261.77 554.763 261.583 554.309 261.21 553.968C260.847 553.627 260.324 553.456 259.641 553.456C258.98 553.456 258.447 553.627 258.042 553.968C257.636 554.309 257.396 554.768 257.322 555.344H255.898ZM265.031 555.04C265.031 554.315 265.25 553.739 265.687 553.312C266.125 552.875 266.685 552.656 267.367 552.656C268.05 552.656 268.61 552.875 269.047 553.312C269.485 553.739 269.703 554.315 269.703 555.04C269.703 555.776 269.485 556.363 269.047 556.8C268.61 557.227 268.05 557.44 267.367 557.44C266.685 557.44 266.125 557.227 265.687 556.8C265.25 556.363 265.031 555.776 265.031 555.04ZM274.375 552.832L267.895 564H266.455L272.935 552.832H274.375ZM267.367 553.552C267.005 553.552 266.717 553.68 266.503 553.936C266.301 554.181 266.199 554.549 266.199 555.04C266.199 555.531 266.301 555.904 266.503 556.16C266.717 556.416 267.005 556.544 267.367 556.544C267.73 556.544 268.018 556.416 268.231 556.16C268.445 555.893 268.551 555.52 268.551 555.04C268.551 554.549 268.445 554.181 268.231 553.936C268.018 553.68 267.73 553.552 267.367 553.552ZM271.159 561.792C271.159 561.056 271.378 560.475 271.815 560.048C272.253 559.611 272.813 559.392 273.495 559.392C274.178 559.392 274.733 559.611 275.159 560.048C275.597 560.475 275.815 561.056 275.815 561.792C275.815 562.517 275.597 563.099 275.159 563.536C274.733 563.973 274.178 564.192 273.495 564.192C272.813 564.192 272.253 563.979 271.815 563.552C271.378 563.115 271.159 562.528 271.159 561.792ZM273.479 560.304C273.117 560.304 272.829 560.432 272.615 560.688C272.402 560.933 272.295 561.301 272.295 561.792C272.295 562.272 272.402 562.64 272.615 562.896C272.829 563.141 273.117 563.264 273.479 563.264C273.842 563.264 274.13 563.141 274.343 562.896C274.557 562.64 274.663 562.272 274.663 561.792C274.663 561.301 274.557 560.933 274.343 560.688C274.13 560.432 273.842 560.304 273.479 560.304Z" fill="#454545"/>
<path d="M105.854 458.168C105.854 458.663 105.737 459.129 105.504 459.568C105.271 460.007 104.897 460.366 104.384 460.646C103.871 460.917 103.213 461.052 102.41 461.052H100.646V465H99.05V455.27H102.41C103.157 455.27 103.787 455.401 104.3 455.662C104.823 455.914 105.21 456.259 105.462 456.698C105.723 457.137 105.854 457.627 105.854 458.168ZM102.41 459.75C103.017 459.75 103.469 459.615 103.768 459.344C104.067 459.064 104.216 458.672 104.216 458.168C104.216 457.104 103.614 456.572 102.41 456.572H100.646V459.75H102.41ZM108.972 458.406C109.206 458.014 109.514 457.711 109.896 457.496C110.288 457.272 110.75 457.16 111.282 457.16V458.812H110.876C110.251 458.812 109.775 458.971 109.448 459.288C109.131 459.605 108.972 460.156 108.972 460.94V465H107.376V457.286H108.972V458.406ZM116.095 465.126C115.367 465.126 114.709 464.963 114.121 464.636C113.533 464.3 113.071 463.833 112.735 463.236C112.399 462.629 112.231 461.929 112.231 461.136C112.231 460.352 112.404 459.657 112.749 459.05C113.095 458.443 113.566 457.977 114.163 457.65C114.761 457.323 115.428 457.16 116.165 457.16C116.903 457.16 117.57 457.323 118.167 457.65C118.765 457.977 119.236 458.443 119.581 459.05C119.927 459.657 120.099 460.352 120.099 461.136C120.099 461.92 119.922 462.615 119.567 463.222C119.213 463.829 118.727 464.3 118.111 464.636C117.505 464.963 116.833 465.126 116.095 465.126ZM116.095 463.74C116.506 463.74 116.889 463.642 117.243 463.446C117.607 463.25 117.901 462.956 118.125 462.564C118.349 462.172 118.461 461.696 118.461 461.136C118.461 460.576 118.354 460.105 118.139 459.722C117.925 459.33 117.64 459.036 117.285 458.84C116.931 458.644 116.548 458.546 116.137 458.546C115.727 458.546 115.344 458.644 114.989 458.84C114.644 459.036 114.369 459.33 114.163 459.722C113.958 460.105 113.855 460.576 113.855 461.136C113.855 461.967 114.065 462.611 114.485 463.068C114.915 463.516 115.451 463.74 116.095 463.74ZM121.145 461.108C121.145 460.333 121.304 459.647 121.621 459.05C121.948 458.453 122.386 457.991 122.937 457.664C123.497 457.328 124.118 457.16 124.799 457.16C125.303 457.16 125.798 457.272 126.283 457.496C126.778 457.711 127.17 458 127.459 458.364V454.64H129.069V465H127.459V463.838C127.198 464.211 126.834 464.519 126.367 464.762C125.91 465.005 125.382 465.126 124.785 465.126C124.113 465.126 123.497 464.958 122.937 464.622C122.386 464.277 121.948 463.801 121.621 463.194C121.304 462.578 121.145 461.883 121.145 461.108ZM127.459 461.136C127.459 460.604 127.347 460.142 127.123 459.75C126.908 459.358 126.624 459.059 126.269 458.854C125.914 458.649 125.532 458.546 125.121 458.546C124.71 458.546 124.328 458.649 123.973 458.854C123.618 459.05 123.329 459.344 123.105 459.736C122.89 460.119 122.783 460.576 122.783 461.108C122.783 461.64 122.89 462.107 123.105 462.508C123.329 462.909 123.618 463.217 123.973 463.432C124.337 463.637 124.72 463.74 125.121 463.74C125.532 463.74 125.914 463.637 126.269 463.432C126.624 463.227 126.908 462.928 127.123 462.536C127.347 462.135 127.459 461.668 127.459 461.136ZM138.151 457.286V465H136.555V464.09C136.303 464.407 135.972 464.659 135.561 464.846C135.16 465.023 134.731 465.112 134.273 465.112C133.667 465.112 133.121 464.986 132.635 464.734C132.159 464.482 131.781 464.109 131.501 463.614C131.231 463.119 131.095 462.522 131.095 461.822V457.286H132.677V461.584C132.677 462.275 132.85 462.807 133.195 463.18C133.541 463.544 134.012 463.726 134.609 463.726C135.207 463.726 135.678 463.544 136.023 463.18C136.378 462.807 136.555 462.275 136.555 461.584V457.286H138.151ZM141.069 456.264C140.78 456.264 140.537 456.166 140.341 455.97C140.145 455.774 140.047 455.531 140.047 455.242C140.047 454.953 140.145 454.71 140.341 454.514C140.537 454.318 140.78 454.22 141.069 454.22C141.349 454.22 141.587 454.318 141.783 454.514C141.979 454.71 142.077 454.953 142.077 455.242C142.077 455.531 141.979 455.774 141.783 455.97C141.587 456.166 141.349 456.264 141.069 456.264ZM141.853 457.286V465H140.257V457.286H141.853ZM145.81 458.588V462.858C145.81 463.147 145.876 463.357 146.006 463.488C146.146 463.609 146.38 463.67 146.706 463.67H147.686V465H146.426C145.708 465 145.157 464.832 144.774 464.496C144.392 464.16 144.2 463.614 144.2 462.858V458.588H143.29V457.286H144.2V455.368H145.81V457.286H147.686V458.588H145.81ZM151.957 465.126C151.351 465.126 150.805 465.019 150.319 464.804C149.843 464.58 149.465 464.281 149.185 463.908C148.905 463.525 148.756 463.101 148.737 462.634H150.389C150.417 462.961 150.571 463.236 150.851 463.46C151.141 463.675 151.5 463.782 151.929 463.782C152.377 463.782 152.723 463.698 152.965 463.53C153.217 463.353 153.343 463.129 153.343 462.858C153.343 462.569 153.203 462.354 152.923 462.214C152.653 462.074 152.219 461.92 151.621 461.752C151.043 461.593 150.571 461.439 150.207 461.29C149.843 461.141 149.526 460.912 149.255 460.604C148.994 460.296 148.863 459.89 148.863 459.386C148.863 458.975 148.985 458.602 149.227 458.266C149.47 457.921 149.815 457.65 150.263 457.454C150.721 457.258 151.243 457.16 151.831 457.16C152.709 457.16 153.413 457.384 153.945 457.832C154.487 458.271 154.776 458.873 154.813 459.638H153.217C153.189 459.293 153.049 459.017 152.797 458.812C152.545 458.607 152.205 458.504 151.775 458.504C151.355 458.504 151.033 458.583 150.809 458.742C150.585 458.901 150.473 459.111 150.473 459.372C150.473 459.577 150.548 459.75 150.697 459.89C150.847 460.03 151.029 460.142 151.243 460.226C151.458 460.301 151.775 460.399 152.195 460.52C152.755 460.669 153.213 460.823 153.567 460.982C153.931 461.131 154.244 461.355 154.505 461.654C154.767 461.953 154.902 462.349 154.911 462.844C154.911 463.283 154.79 463.675 154.547 464.02C154.305 464.365 153.959 464.636 153.511 464.832C153.073 465.028 152.555 465.126 151.957 465.126ZM168.659 455.27L165.005 465H163.157L159.489 455.27H161.197L164.081 463.362L166.979 455.27H168.659ZM177.063 460.954C177.063 461.243 177.045 461.505 177.007 461.738H171.113C171.16 462.354 171.389 462.849 171.799 463.222C172.21 463.595 172.714 463.782 173.311 463.782C174.17 463.782 174.777 463.423 175.131 462.704H176.853C176.62 463.413 176.195 463.997 175.579 464.454C174.973 464.902 174.217 465.126 173.311 465.126C172.574 465.126 171.911 464.963 171.323 464.636C170.745 464.3 170.287 463.833 169.951 463.236C169.625 462.629 169.461 461.929 169.461 461.136C169.461 460.343 169.62 459.647 169.937 459.05C170.264 458.443 170.717 457.977 171.295 457.65C171.883 457.323 172.555 457.16 173.311 457.16C174.039 457.16 174.688 457.319 175.257 457.636C175.827 457.953 176.27 458.401 176.587 458.98C176.905 459.549 177.063 460.207 177.063 460.954ZM175.397 460.45C175.388 459.862 175.178 459.391 174.767 459.036C174.357 458.681 173.848 458.504 173.241 458.504C172.691 458.504 172.219 458.681 171.827 459.036C171.435 459.381 171.202 459.853 171.127 460.45H175.397ZM182.526 457.16C183.133 457.16 183.674 457.286 184.15 457.538C184.635 457.79 185.013 458.163 185.284 458.658C185.555 459.153 185.69 459.75 185.69 460.45V465H184.108V460.688C184.108 459.997 183.935 459.47 183.59 459.106C183.245 458.733 182.773 458.546 182.176 458.546C181.579 458.546 181.103 458.733 180.748 459.106C180.403 459.47 180.23 459.997 180.23 460.688V465H178.634V457.286H180.23V458.168C180.491 457.851 180.823 457.603 181.224 457.426C181.635 457.249 182.069 457.16 182.526 457.16ZM187.194 461.108C187.194 460.333 187.352 459.647 187.67 459.05C187.996 458.453 188.435 457.991 188.986 457.664C189.546 457.328 190.166 457.16 190.848 457.16C191.352 457.16 191.846 457.272 192.332 457.496C192.826 457.711 193.218 458 193.508 458.364V454.64H195.118V465H193.508V463.838C193.246 464.211 192.882 464.519 192.416 464.762C191.958 465.005 191.431 465.126 190.834 465.126C190.162 465.126 189.546 464.958 188.986 464.622C188.435 464.277 187.996 463.801 187.67 463.194C187.352 462.578 187.194 461.883 187.194 461.108ZM193.508 461.136C193.508 460.604 193.396 460.142 193.172 459.75C192.957 459.358 192.672 459.059 192.318 458.854C191.963 458.649 191.58 458.546 191.17 458.546C190.759 458.546 190.376 458.649 190.022 458.854C189.667 459.05 189.378 459.344 189.154 459.736C188.939 460.119 188.832 460.576 188.832 461.108C188.832 461.64 188.939 462.107 189.154 462.508C189.378 462.909 189.667 463.217 190.022 463.432C190.386 463.637 190.768 463.74 191.17 463.74C191.58 463.74 191.963 463.637 192.318 463.432C192.672 463.227 192.957 462.928 193.172 462.536C193.396 462.135 193.508 461.668 193.508 461.136ZM204.2 457.286V465H202.604V464.09C202.352 464.407 202.021 464.659 201.61 464.846C201.209 465.023 200.779 465.112 200.322 465.112C199.715 465.112 199.169 464.986 198.684 464.734C198.208 464.482 197.83 464.109 197.55 463.614C197.279 463.119 197.144 462.522 197.144 461.822V457.286H198.726V461.584C198.726 462.275 198.899 462.807 199.244 463.18C199.589 463.544 200.061 463.726 200.658 463.726C201.255 463.726 201.727 463.544 202.072 463.18C202.427 462.807 202.604 462.275 202.604 461.584V457.286H204.2ZM209.106 465.126C208.499 465.126 207.953 465.019 207.468 464.804C206.992 464.58 206.614 464.281 206.334 463.908C206.054 463.525 205.905 463.101 205.886 462.634H207.538C207.566 462.961 207.72 463.236 208 463.46C208.289 463.675 208.649 463.782 209.078 463.782C209.526 463.782 209.871 463.698 210.114 463.53C210.366 463.353 210.492 463.129 210.492 462.858C210.492 462.569 210.352 462.354 210.072 462.214C209.801 462.074 209.367 461.92 208.77 461.752C208.191 461.593 207.72 461.439 207.356 461.29C206.992 461.141 206.675 460.912 206.404 460.604C206.143 460.296 206.012 459.89 206.012 459.386C206.012 458.975 206.133 458.602 206.376 458.266C206.619 457.921 206.964 457.65 207.412 457.454C207.869 457.258 208.392 457.16 208.98 457.16C209.857 457.16 210.562 457.384 211.094 457.832C211.635 458.271 211.925 458.873 211.962 459.638H210.366C210.338 459.293 210.198 459.017 209.946 458.812C209.694 458.607 209.353 458.504 208.924 458.504C208.504 458.504 208.182 458.583 207.958 458.742C207.734 458.901 207.622 459.111 207.622 459.372C207.622 459.577 207.697 459.75 207.846 459.89C207.995 460.03 208.177 460.142 208.392 460.226C208.607 460.301 208.924 460.399 209.344 460.52C209.904 460.669 210.361 460.823 210.716 460.982C211.08 461.131 211.393 461.355 211.654 461.654C211.915 461.953 212.051 462.349 212.06 462.844C212.06 463.283 211.939 463.675 211.696 464.02C211.453 464.365 211.108 464.636 210.66 464.832C210.221 465.028 209.703 465.126 209.106 465.126Z" fill="#202020"/>
<ellipse cx="305.668" cy="456.512" rx="2.3125" ry="2.27931" fill="#454545"/>
<ellipse cx="314.918" cy="456.512" rx="2.3125" ry="2.27931" fill="#454545"/>
<ellipse cx="324.168" cy="456.512" rx="2.3125" ry="2.27931" fill="#454545"/>
<path d="M129.44 501.712H113.36V511.264C114.032 510.368 115.024 509.616 116.336 509.008C117.68 508.4 119.104 508.096 120.608 508.096C123.296 508.096 125.472 508.672 127.136 509.824C128.832 510.976 130.032 512.432 130.736 514.192C131.472 515.952 131.84 517.808 131.84 519.76C131.84 522.128 131.376 524.24 130.448 526.096C129.552 527.92 128.192 529.36 126.368 530.416C124.576 531.472 122.368 532 119.744 532C116.256 532 113.456 531.136 111.344 529.408C109.232 527.68 107.968 525.392 107.552 522.544H112.88C113.232 524.048 114.016 525.248 115.232 526.144C116.448 527.008 117.968 527.44 119.792 527.44C122.064 527.44 123.76 526.752 124.88 525.376C126.032 524 126.608 522.176 126.608 519.904C126.608 517.6 126.032 515.84 124.88 514.624C123.728 513.376 122.032 512.752 119.792 512.752C118.224 512.752 116.896 513.152 115.808 513.952C114.752 514.72 113.984 515.776 113.504 517.12H108.32V496.912H129.44V501.712ZM159.712 501.232L146.368 532H140.848L154.336 501.808H136.576V497.152H159.712V501.232ZM170.3 513.712C166.972 512.048 165.308 509.424 165.308 505.84C165.308 504.112 165.74 502.528 166.604 501.088C167.468 499.648 168.764 498.512 170.492 497.68C172.22 496.816 174.332 496.384 176.828 496.384C179.292 496.384 181.388 496.816 183.116 497.68C184.876 498.512 186.188 499.648 187.052 501.088C187.916 502.528 188.348 504.112 188.348 505.84C188.348 507.632 187.884 509.216 186.956 510.592C186.06 511.936 184.86 512.976 183.356 513.712C185.18 514.384 186.62 515.488 187.676 517.024C188.732 518.528 189.26 520.304 189.26 522.352C189.26 524.432 188.732 526.272 187.676 527.872C186.62 529.472 185.148 530.704 183.26 531.568C181.372 532.432 179.228 532.864 176.828 532.864C174.428 532.864 172.284 532.432 170.396 531.568C168.54 530.704 167.084 529.472 166.028 527.872C164.972 526.272 164.444 524.432 164.444 522.352C164.444 520.272 164.972 518.48 166.028 516.976C167.084 515.472 168.508 514.384 170.3 513.712ZM183.116 506.512C183.116 504.72 182.556 503.344 181.436 502.384C180.316 501.424 178.78 500.944 176.828 500.944C174.908 500.944 173.388 501.424 172.268 502.384C171.148 503.344 170.588 504.736 170.588 506.56C170.588 508.16 171.164 509.472 172.316 510.496C173.5 511.488 175.004 511.984 176.828 511.984C178.652 511.984 180.156 511.472 181.34 510.448C182.524 509.424 183.116 508.112 183.116 506.512ZM176.828 516.112C174.716 516.112 172.988 516.64 171.644 517.696C170.332 518.72 169.676 520.208 169.676 522.16C169.676 523.984 170.316 525.472 171.596 526.624C172.876 527.744 174.62 528.304 176.828 528.304C179.004 528.304 180.716 527.728 181.964 526.576C183.244 525.424 183.884 523.952 183.884 522.16C183.884 520.24 183.228 518.752 181.916 517.696C180.636 516.64 178.94 516.112 176.828 516.112Z" fill="black"/>
<path fill-rule="evenodd" clip-rule="evenodd" d="M202 509.762L214.132 500L224.958 501.316L235.783 507.897L246.795 503.071L257.807 521.827L268.819 516.672L279.636 529.276L290.657 526.543L301.669 517.33L312.495 520.401L325 506.362V533H202V509.762Z" fill="url(#paint0_linear)" fill-opacity="0.5" stroke="#1676FF" stroke-width="2.5"/>
<g filter="url(#filter2_d)">
<rect x="534" y="72" width="171" height="150.61" rx="30" fill="white"/>
</g>
<path d="M571.562 178.517H574.932V179.97H571.562V183.788H570.018V179.97H566.647V178.517H570.018V174.989H571.562V178.517ZM583.133 180.941H584.81V182.194H583.133V185H581.589V182.194H576.085V181.29L581.498 172.914H583.133V180.941ZM577.829 180.941H581.589V175.014L581.406 175.346L577.829 180.941ZM588.429 178.21H589.583C590.307 178.199 590.877 178.008 591.292 177.637C591.708 177.266 591.915 176.766 591.915 176.135C591.915 174.718 591.209 174.01 589.798 174.01C589.134 174.01 588.603 174.201 588.205 174.583C587.812 174.959 587.615 175.46 587.615 176.085H586.08C586.08 175.128 586.428 174.333 587.125 173.703C587.828 173.066 588.719 172.748 589.798 172.748C590.938 172.748 591.832 173.05 592.479 173.653C593.127 174.256 593.451 175.094 593.451 176.168C593.451 176.694 593.279 177.203 592.936 177.695C592.598 178.188 592.136 178.556 591.55 178.799C592.214 179.01 592.726 179.358 593.085 179.845C593.451 180.332 593.633 180.927 593.633 181.63C593.633 182.715 593.279 183.575 592.571 184.211C591.862 184.848 590.941 185.166 589.807 185.166C588.672 185.166 587.748 184.859 587.034 184.245C586.326 183.63 585.972 182.82 585.972 181.812H587.516C587.516 182.449 587.723 182.958 588.138 183.34C588.553 183.722 589.109 183.913 589.807 183.913C590.548 183.913 591.115 183.719 591.508 183.332C591.901 182.944 592.098 182.388 592.098 181.663C592.098 180.96 591.882 180.421 591.45 180.044C591.019 179.668 590.396 179.474 589.583 179.463H588.429V178.21ZM595.609 175.238C595.609 174.513 595.839 173.916 596.298 173.445C596.763 172.975 597.358 172.74 598.083 172.74C598.819 172.74 599.413 172.978 599.867 173.454C600.326 173.924 600.556 174.535 600.556 175.288V175.877C600.556 176.608 600.324 177.206 599.859 177.67C599.4 178.13 598.813 178.359 598.099 178.359C597.38 178.359 596.785 178.13 596.314 177.67C595.844 177.206 595.609 176.589 595.609 175.819V175.238ZM596.754 175.877C596.754 176.309 596.876 176.666 597.12 176.948C597.363 177.225 597.69 177.363 598.099 177.363C598.492 177.363 598.807 177.228 599.045 176.957C599.289 176.685 599.411 176.315 599.411 175.844V175.238C599.411 174.807 599.292 174.45 599.054 174.167C598.816 173.885 598.492 173.744 598.083 173.744C597.673 173.744 597.349 173.885 597.111 174.167C596.873 174.45 596.754 174.818 596.754 175.271V175.877ZM601.494 182.037C601.494 181.312 601.724 180.717 602.183 180.252C602.648 179.782 603.243 179.546 603.968 179.546C604.693 179.546 605.288 179.779 605.752 180.244C606.217 180.708 606.45 181.326 606.45 182.095V182.684C606.45 183.409 606.217 184.007 605.752 184.477C605.293 184.942 604.704 185.174 603.984 185.174C603.265 185.174 602.67 184.945 602.2 184.485C601.729 184.021 601.494 183.403 601.494 182.634V182.037ZM602.64 182.684C602.64 183.121 602.761 183.481 603.005 183.763C603.248 184.04 603.575 184.178 603.984 184.178C604.383 184.178 604.701 184.043 604.939 183.771C605.177 183.495 605.296 183.121 605.296 182.651V182.037C605.296 181.599 605.174 181.243 604.931 180.966C604.693 180.689 604.372 180.551 603.968 180.551C603.575 180.551 603.254 180.689 603.005 180.966C602.761 181.237 602.64 181.605 602.64 182.07V182.684ZM598.448 184.087L597.576 183.539L603.478 174.093L604.35 174.641L598.448 184.087ZM621.731 183.415C621.322 184.001 620.749 184.441 620.013 184.734C619.283 185.022 618.431 185.166 617.457 185.166C616.472 185.166 615.597 184.936 614.833 184.477C614.07 184.012 613.478 183.354 613.057 182.501C612.642 181.649 612.429 180.661 612.418 179.538V178.484C612.418 176.663 612.841 175.252 613.688 174.25C614.54 173.249 615.736 172.748 617.274 172.748C618.536 172.748 619.551 173.072 620.32 173.719C621.09 174.361 621.56 175.274 621.731 176.458H620.138C619.839 174.859 618.887 174.06 617.282 174.06C616.214 174.06 615.403 174.436 614.85 175.188C614.302 175.936 614.026 177.02 614.02 178.442V179.43C614.02 180.786 614.33 181.865 614.95 182.667C615.569 183.464 616.408 183.863 617.465 183.863C618.062 183.863 618.585 183.796 619.034 183.664C619.482 183.531 619.853 183.307 620.146 182.991V180.277H617.349V178.982H621.731V183.415ZM628.497 177.396C628.264 177.358 628.012 177.338 627.741 177.338C626.734 177.338 626.051 177.767 625.691 178.625V185H624.155V176.019H625.649L625.674 177.056C626.178 176.254 626.892 175.853 627.816 175.853C628.115 175.853 628.342 175.891 628.497 175.969V177.396ZM629.343 180.426C629.343 179.546 629.515 178.755 629.858 178.052C630.207 177.349 630.688 176.807 631.302 176.425C631.922 176.043 632.628 175.853 633.419 175.853C634.642 175.853 635.63 176.276 636.382 177.123C637.14 177.969 637.52 179.095 637.52 180.501V180.609C637.52 181.483 637.351 182.269 637.013 182.966C636.681 183.658 636.202 184.198 635.577 184.585C634.957 184.972 634.243 185.166 633.436 185.166C632.218 185.166 631.23 184.743 630.472 183.896C629.72 183.049 629.343 181.929 629.343 180.534V180.426ZM630.887 180.609C630.887 181.605 631.117 182.405 631.576 183.008C632.041 183.611 632.661 183.913 633.436 183.913C634.216 183.913 634.836 183.608 635.295 183C635.754 182.385 635.984 181.528 635.984 180.426C635.984 179.441 635.749 178.644 635.278 178.036C634.813 177.421 634.194 177.114 633.419 177.114C632.661 177.114 632.049 177.416 631.584 178.019C631.12 178.622 630.887 179.486 630.887 180.609ZM647.397 182.883L649.124 176.019H650.66L648.045 185H646.8L644.617 178.193L642.492 185H641.247L638.64 176.019H640.167L641.936 182.742L644.027 176.019H645.264L647.397 182.883ZM654.312 173.844V176.019H655.989V177.206H654.312V182.775C654.312 183.135 654.387 183.406 654.536 183.589C654.686 183.766 654.94 183.854 655.3 183.854C655.477 183.854 655.72 183.821 656.03 183.755V185C655.626 185.111 655.233 185.166 654.852 185.166C654.165 185.166 653.648 184.958 653.299 184.543C652.951 184.128 652.776 183.539 652.776 182.775V177.206H651.141V176.019H652.776V173.844H654.312ZM659.326 177.106C660.006 176.27 660.892 175.853 661.982 175.853C663.88 175.853 664.837 176.923 664.854 179.065V185H663.318V179.057C663.313 178.409 663.163 177.931 662.87 177.621C662.582 177.311 662.131 177.156 661.517 177.156C661.019 177.156 660.582 177.289 660.206 177.554C659.829 177.82 659.536 178.168 659.326 178.6V185H657.79V172.25H659.326V177.106Z" fill="#0F6AFF"/>
<ellipse cx="619.903" cy="132.5" rx="27.9025" ry="26.5" fill="#ADCFFF"/>
<path d="M620.621 145.974V121.587L629.362 130.925C629.82 131.414 630.58 131.433 631.061 130.967C631.541 130.502 631.56 129.728 631.102 129.239L621.119 118.574C620.665 118.112 620.062 117.857 619.42 117.857C618.778 117.857 618.175 118.112 617.701 118.595L607.738 129.239C607.516 129.476 607.406 129.779 607.406 130.082C607.406 130.405 607.531 130.728 607.779 130.968C608.26 131.434 609.02 131.415 609.478 130.926L618.219 121.548V145.974C618.219 146.649 618.757 147.197 619.42 147.197C620.083 147.197 620.621 146.649 620.621 145.974Z" fill="#0F23FF" stroke="#51C03E" stroke-width="0.5"/>
<defs>
<filter id="filter0_d" x="113" y="91" width="608" height="483" filterUnits="userSpaceOnUse" color-interpolation-filters="sRGB">
<feFlood flood-opacity="0" result="BackgroundImageFix"/>
<feColorMatrix in="SourceAlpha" type="matrix" values="0 0 0 0 0 0 0 0 0 0 0 0 0 0 0 0 0 0 127 0" result="hardAlpha"/>
<feOffset dy="4"/>
<feGaussianBlur stdDeviation="38"/>
<feComposite in2="hardAlpha" operator="out"/>
<feColorMatrix type="matrix" values="0 0 0 0 0.0588235 0 0 0 0 0.137255 0 0 0 0 1 0 0 0 0.3 0"/>
<feBlend mode="normal" in2="BackgroundImageFix" result="effect1_dropShadow"/>
<feBlend mode="normal" in="SourceGraphic" in2="effect1_dropShadow" result="shape"/>
</filter>
<filter id="filter1_d" x="0" y="338" width="426" height="359" filterUnits="userSpaceOnUse" color-interpolation-filters="sRGB">
<feFlood flood-opacity="0" result="BackgroundImageFix"/>
<feColorMatrix in="SourceAlpha" type="matrix" values="0 0 0 0 0 0 0 0 0 0 0 0 0 0 0 0 0 0 127 0" result="hardAlpha"/>
<feOffset dy="4"/>
<feGaussianBlur stdDeviation="38"/>
<feComposite in2="hardAlpha" operator="out"/>
<feColorMatrix type="matrix" values="0 0 0 0 0.0588235 0 0 0 0 0.137255 0 0 0 0 1 0 0 0 0.3 0"/>
<feBlend mode="normal" in2="BackgroundImageFix" result="effect1_dropShadow"/>
<feBlend mode="normal" in="SourceGraphic" in2="effect1_dropShadow" result="shape"/>
</filter>
<filter id="filter2_d" x="458" y="0" width="323" height="302.609" filterUnits="userSpaceOnUse" color-interpolation-filters="sRGB">
<feFlood flood-opacity="0" result="BackgroundImageFix"/>
<feColorMatrix in="SourceAlpha" type="matrix" values="0 0 0 0 0 0 0 0 0 0 0 0 0 0 0 0 0 0 127 0" result="hardAlpha"/>
<feOffset dy="4"/>
<feGaussianBlur stdDeviation="38"/>
<feComposite in2="hardAlpha" operator="out"/>
<feColorMatrix type="matrix" values="0 0 0 0 0.0588235 0 0 0 0 0.137255 0 0 0 0 1 0 0 0 0.3 0"/>
<feBlend mode="normal" in2="BackgroundImageFix" result="effect1_dropShadow"/>
<feBlend mode="normal" in="SourceGraphic" in2="effect1_dropShadow" result="shape"/>
</filter>
<linearGradient id="paint0_linear" x1="202" y1="500" x2="202" y2="533" gradientUnits="userSpaceOnUse">
<stop stop-color="#1676FF"/>
<stop offset="1" stop-color="#1676FF"/>
</linearGradient>
<clipPath id="clip0">
<rect width="50" height="35" fill="white" transform="translate(454 320)"/>
</clipPath>
</defs>
</svg>
