<svg xmlns="http://www.w3.org/2000/svg" xmlns:xlink="http://www.w3.org/1999/xlink" viewBox="0 0 100 100"><path fill="#fefdef" d="M79,78l0.158-35h0.43c1.278-0.653,2.051-1.752,2.051-3.385c0-0.397-0.008-0.756-0.02-1.19l-2.07-14.772L80,20.909C80,19.859,79.087,19,77.972,19H22.028C20.913,19,20,19.859,20,20.909l0.407,1.703L17.88,38.287c-0.001,0-0.002,0-0.003,0c0,0.005,0,0.01-0.001,0.014l-0.005,0.125c-0.016,0.354-0.026,0.731-0.026,1.151c0,1.72,0.751,2.869,2.154,3.4L20,42v36h-2v3h64v-3H79z"/><path fill="#1f212b" d="M82,82H18c-0.552,0-1-0.448-1-1v-3c0-0.552,0.448-1,1-1h1V43.612c-1.396-0.782-2.155-2.19-2.155-4.035c0-0.436,0.011-0.829,0.027-1.196l0.005-0.118c0.002-0.058,0.009-0.115,0.021-0.17l2.489-15.442l-0.36-1.508C19.01,21.065,19,20.987,19,20.909C19,19.305,20.359,18,22.028,18h55.944C79.642,18,81,19.305,81,20.909c0,0.055-0.004,0.109-0.013,0.163l-0.428,2.594l2.048,14.621c0.005,0.036,0.008,0.073,0.009,0.109c0.013,0.444,0.021,0.812,0.021,1.219c0,1.886-1.2,3.385-2.825,4.26l-0.001,33.166L82,77c0.552,0,1,0.448,1,1v3C83,81.552,82.552,82,82,82z M19,80h62v-1h-2c-0.266,0-0.521-0.106-0.708-0.294c-0.188-0.188-0.292-0.444-0.292-0.71l0.158-35c0.002-0.551,0.45-0.996,1-0.996h0.174c0.89-0.524,1.306-1.288,1.306-2.385c0-0.37-0.007-0.707-0.019-1.105l-2.062-14.717c-0.014-0.1-0.013-0.202,0.003-0.301l0.437-2.647C78.958,20.38,78.504,20,77.972,20H22.028c-0.521,0-0.967,0.365-1.022,0.815l0.374,1.564c0.031,0.128,0.036,0.261,0.015,0.392l-2.523,15.694c-0.016,0.346-0.025,0.709-0.025,1.112c0,0.797,0.189,1.334,0.458,1.706C19.484,41.108,19.729,41,20,41c0,0,0,0,0,0c0.552,0,0.78,0.448,0.78,1v36c0,0.552-0.229,1-0.781,1h-1V80z"/><path fill="#ceccbe" d="M65.5 69.5L29.5 69.5 29.5 63.5 70.5 63.5 70.5 69.5 68.5 69.5"/><path fill="#1f212b" d="M70.5,70h-2c-0.276,0-0.5-0.224-0.5-0.5s0.224-0.5,0.5-0.5H70v-5H30v5h35.5c0.276,0,0.5,0.224,0.5,0.5S65.776,70,65.5,70h-36c-0.276,0-0.5-0.224-0.5-0.5v-6c0-0.276,0.224-0.5,0.5-0.5h41c0.276,0,0.5,0.224,0.5,0.5v6C71,69.776,70.776,70,70.5,70z"/><path fill="#a1dbe2" d="M68.5 39.5L68.5 63.5 31.5 63.5 31.5 39.5"/><path fill="#1f212b" d="M68.5,64h-37c-0.276,0-0.5-0.224-0.5-0.5v-24c0-0.276,0.224-0.5,0.5-0.5s0.5,0.224,0.5,0.5V63h36V39.5c0-0.276,0.224-0.5,0.5-0.5s0.5,0.224,0.5,0.5v24C69,63.776,68.776,64,68.5,64z"/><path fill="#8786c0" d="M34.5 58.5H43.5V63.5H34.5z"/><path fill="#1f212b" d="M43.5,64h-9c-0.276,0-0.5-0.224-0.5-0.5v-5c0-0.276,0.224-0.5,0.5-0.5h9c0.276,0,0.5,0.224,0.5,0.5v5C44,63.776,43.776,64,43.5,64z M35,63h8v-4h-8V63z"/><path fill="#f0648a" d="M56.5 58.5H65.5V63.5H56.5z"/><path fill="#1f212b" d="M65.5,64h-9c-0.276,0-0.5-0.224-0.5-0.5v-5c0-0.276,0.224-0.5,0.5-0.5h9c0.276,0,0.5,0.224,0.5,0.5v5C66,63.776,65.776,64,65.5,64z M57,63h8v-4h-8V63z"/><path fill="#a3a3cd" d="M35.5 53.5H42.5V58.5H35.5z"/><path fill="#1f212b" d="M42.5,59h-7c-0.276,0-0.5-0.224-0.5-0.5v-5c0-0.276,0.224-0.5,0.5-0.5h7c0.276,0,0.5,0.224,0.5,0.5v5C43,58.776,42.776,59,42.5,59z M36,58h6v-4h-6V58z"/><path fill="#f37e98" d="M57.5 53.5H63.5V58.5H57.5z"/><path fill="#1f212b" d="M63.5,59h-6c-0.276,0-0.5-0.224-0.5-0.5v-5c0-0.276,0.224-0.5,0.5-0.5h6c0.276,0,0.5,0.224,0.5,0.5v5C64,58.776,63.776,59,63.5,59z M58,58h5v-4h-5V58z"/><path fill="#ceccbe" d="M52.339,63.231c0.588-0.57,0.952-1.357,0.952-2.226c0-1.222-0.727-2.27-1.777-2.792c0.305-0.336,0.285-2.23-0.055-2.572h-2.836c-0.34,0.343-0.36,2.236-0.055,2.572c-1.051,0.522-1.777,1.569-1.777,2.792c0,0.869,0.364,1.657,0.952,2.226"/><path fill="#1f212b" d="M47.743,63.731c-0.125,0-0.251-0.047-0.348-0.141c-0.711-0.689-1.104-1.608-1.104-2.585c0-1.221,0.626-2.339,1.66-3.014c-0.204-0.865-0.087-2.294,0.316-2.702c0.094-0.095,0.222-0.148,0.355-0.148h2.836c0.133,0,0.261,0.053,0.355,0.148c0.404,0.408,0.521,1.837,0.316,2.702c1.034,0.674,1.66,1.793,1.66,3.014c0,0.978-0.392,1.896-1.104,2.586c-0.197,0.192-0.514,0.188-0.707-0.012c-0.192-0.198-0.187-0.515,0.012-0.707c0.516-0.5,0.8-1.163,0.8-1.867c0-0.986-0.575-1.884-1.5-2.344c-0.141-0.07-0.24-0.201-0.269-0.355c-0.029-0.154,0.016-0.312,0.121-0.429c0.122-0.233,0.119-1.274,0.004-1.737h-2.223c-0.105,0.439-0.107,1.505,0.036,1.766c0.105,0.116,0.139,0.26,0.11,0.415c-0.029,0.154-0.14,0.271-0.28,0.34c-0.925,0.459-1.5,1.357-1.5,2.344c0,0.705,0.284,1.368,0.8,1.868c0.198,0.192,0.203,0.509,0.011,0.707C48.004,63.681,47.874,63.731,47.743,63.731z"/><g><path fill="#f15b6c" d="M25.5,24.5h-4.777l-2.439,13.496c-0.001,0-0.021,0.004-0.022,0.004c0,0.004,0-0.004,0,0l0,0l0,0c-0.014,0.313-0.024,0.647-0.024,1.019v0c0,1.915,1.438,3.481,3.195,3.481h0.553c1.757,0,3.514-1.567,3.514-3.481l0,0c0-0.368,0.012-0.706,0-1.019l0,0V24.5z"/><path fill="#1f212b" d="M21.986,43h-0.553c-2.037,0-3.695-1.786-3.695-3.981c0-0.38,0.009-0.721,0.024-1.042c0.003-0.073,0.022-0.143,0.054-0.204l2.415-13.362C20.274,24.173,20.481,24,20.723,24H25.5c0.276,0,0.5,0.224,0.5,0.5V38c0.008,0.194,0.005,0.419,0.003,0.657L26,39.019C26,41.14,24.125,43,21.986,43z M18.755,38.162c-0.011,0.266-0.017,0.548-0.017,0.857c0,1.644,1.209,2.981,2.695,2.981h0.553C23.409,42,25,40.725,25,39.019l0.003-0.374c0.002-0.22,0.005-0.428-0.002-0.625L25,25h-3.859l-2.365,13.085C18.771,38.112,18.764,38.138,18.755,38.162z"/></g><g><path fill="#fefdef" d="M32.5,24.5h-7v13.263c0,0,0,0.684,0,1.072c0,2.015,1.547,3.664,3.439,3.664h0.451c1.823,0,3.111-1.567,3.111-3.481C32.5,38.65,32.5,24.5,32.5,24.5z"/><path fill="#1f212b" d="M29.389,43h-0.45C26.767,43,25,41.132,25,38.835V24.5c0-0.276,0.224-0.5,0.5-0.5h7c0.276,0,0.5,0.224,0.5,0.5v14.519C33,41.289,31.448,43,29.389,43z M26,25v13.835C26,40.581,27.318,42,28.939,42h0.45C30.877,42,32,40.718,32,39.019V25H26z"/></g><g><path fill="#f15b6c" d="M39.5,24.5h-7v13.263c0,0,0,0.684,0,1.072c0,2.015,1.547,3.664,3.439,3.664h0.451c1.823,0,3.111-1.567,3.111-3.481c0-0.368,0.013-0.706,0-1.019l0,0V24.5z"/><path fill="#1f212b" d="M36.389,43h-0.45C33.767,43,32,41.132,32,38.835V24.5c0-0.276,0.224-0.5,0.5-0.5h7c0.276,0,0.5,0.224,0.5,0.5V38c0.008,0.194,0.006,0.419,0.003,0.657L40,39.019C40,41.289,38.448,43,36.389,43z M33,25v13.835C33,40.581,34.318,42,35.939,42h0.45C37.877,42,39,40.718,39,39.019l0.003-0.374c0.003-0.22,0.005-0.427-0.002-0.625L39,25H33z"/></g><g><path fill="#fefdef" d="M46.5,24.5h-7v13.263c0,0,0,0.684,0,1.072c0,2.015,1.547,3.664,3.439,3.664h0.451c1.823,0,3.111-1.567,3.111-3.481c0-0.368,0.013-0.706,0-1.019l0,0V24.5z"/><path fill="#1f212b" d="M43.389,43h-0.45C40.767,43,39,41.132,39,38.835V24.5c0-0.276,0.224-0.5,0.5-0.5h7c0.276,0,0.5,0.224,0.5,0.5V38c0.008,0.194,0.006,0.419,0.003,0.657L47,39.019C47,41.289,45.448,43,43.389,43z M40,25v13.835C40,40.581,41.318,42,42.939,42h0.45C44.877,42,46,40.718,46,39.019l0.003-0.374c0.003-0.22,0.005-0.427-0.002-0.625L46,25H40z"/></g><g><path fill="#f15b6c" d="M53.5,24.5h-7v13.263c0,0,0,0.684,0,1.072c0,2.015,1.547,3.664,3.439,3.664h0.451c1.823,0,3.111-1.567,3.111-3.481C53.5,38.65,53.5,24.5,53.5,24.5z"/><path fill="#1f212b" d="M50.389,43h-0.45C47.767,43,46,41.132,46,38.835V24.5c0-0.276,0.224-0.5,0.5-0.5h7c0.276,0,0.5,0.224,0.5,0.5v14.519C54,41.289,52.448,43,50.389,43z M47,25v13.835C47,40.581,48.318,42,49.939,42h0.45C51.877,42,53,40.718,53,39.019V25H47z"/></g><g><path fill="#fefdef" d="M60.5,24.5h-7v13.263c0,0,0,0.684,0,1.072c0,2.015,1.547,3.664,3.439,3.664h0.451c1.823,0,3.111-1.592,3.111-3.506c0-0.368,0.013-0.681,0-0.994l0,0V24.5z"/><path fill="#1f212b" d="M57.389,43h-0.45C54.767,43,53,41.132,53,38.835V24.5c0-0.276,0.224-0.5,0.5-0.5h7c0.276,0,0.5,0.224,0.5,0.5V38c0.008,0.193,0.006,0.407,0.003,0.636L61,38.994C61,41.24,59.414,43,57.389,43z M54,25v13.835C54,40.581,55.318,42,56.939,42h0.45C58.877,42,60,40.708,60,38.994l0.003-0.37c0.003-0.211,0.005-0.407-0.002-0.604L60,25H54z"/></g><g><path fill="#f15b6c" d="M67.5,24.5h-7v13.263c0,0,0,0.454,0,0.699c0,2.221,1.549,4.037,3.443,4.037h0.451c1.826,0,3.109-1.772,3.109-3.881c0-0.233,0.001-0.406-0.004-0.619l0,0V24.5z"/><path fill="#1f212b" d="M64.394,43h-0.451C61.769,43,60,40.964,60,38.462V24.5c0-0.276,0.224-0.5,0.5-0.5h7c0.276,0,0.5,0.224,0.5,0.5V38c0.004,0.172,0.003,0.326,0.003,0.512v0.106C68.003,41.076,66.418,43,64.394,43z M61,25v13.462C61,40.413,62.32,42,63.943,42h0.451c1.463,0,2.609-1.485,2.609-3.381v-0.107c0-0.179,0-0.326-0.003-0.501V25H61z"/></g><g><path fill="#fefdef" d="M74.5,24.5h-7v13.263c0,0,0,0.684,0,1.072c0,2.015,1.547,3.664,3.439,3.664h0.451c1.823,0,3.111-1.567,3.111-3.481c0-0.368,0.013-0.706,0-1.019l0,0V24.5z"/><path fill="#1f212b" d="M71.389,43h-0.45C68.767,43,67,41.132,67,38.835V24.5c0-0.276,0.224-0.5,0.5-0.5h7c0.276,0,0.5,0.224,0.5,0.5V38c0.008,0.194,0.006,0.419,0.003,0.657L75,39.019C75,41.289,73.448,43,71.389,43z M68,25v13.835C68,40.581,69.318,42,70.939,42h0.45C72.877,42,74,40.718,74,39.019l0.003-0.374c0.003-0.22,0.005-0.427-0.002-0.625L74,25H68z"/></g><g><path fill="#f15b6c" d="M81.423,38L81.423,38l-2.182-13.5H74.5v13h0.025c-0.016,0.347-0.025,0.722-0.025,1.132v0c0,2.127,1.597,3.868,3.55,3.868h0.198c1.757,0,3.195-1.567,3.195-3.481v0C81.443,38.649,81.435,38.313,81.423,38z"/><path fill="#1f212b" d="M78.248,43H78.05C75.817,43,74,41.041,74,38.632c0-0.359,0.007-0.691,0.019-1.002C74.006,37.588,74,37.545,74,37.5v-13c0-0.276,0.224-0.5,0.5-0.5h4.741c0.245,0,0.455,0.178,0.494,0.42l2.182,13.5c0.003,0.02,0.005,0.04,0.006,0.06c0.013,0.319,0.021,0.662,0.021,1.039C81.943,41.214,80.285,43,78.248,43z M75,37.36c0.018,0.052,0.026,0.107,0.024,0.163C75.009,37.863,75,38.23,75,38.632C75,40.489,76.368,42,78.05,42h0.198c1.486,0,2.695-1.337,2.695-2.981c0-0.351-0.007-0.67-0.019-0.969L78.815,25H75V37.36z"/></g><g><path fill="#1f212b" d="M81.5,39h-63c-0.276,0-0.5-0.224-0.5-0.5s0.224-0.5,0.5-0.5h63c0.276,0,0.5,0.224,0.5,0.5S81.776,39,81.5,39z"/></g><g><path fill="#1f212b" d="M75.5,79h-1c-0.276,0-0.5-0.224-0.5-0.5s0.224-0.5,0.5-0.5h1c0.276,0,0.5,0.224,0.5,0.5S75.776,79,75.5,79z"/></g><g><path fill="#1f212b" d="M71.5,79c-0.13,0-0.26-0.05-0.35-0.15c-0.05-0.04-0.09-0.1-0.11-0.16C71.01,78.63,71,78.57,71,78.5c0-0.13,0.05-0.26,0.15-0.35c0.18-0.19,0.52-0.19,0.7,0c0.1,0.09,0.15,0.22,0.15,0.35c0,0.07-0.01,0.13-0.04,0.19c-0.02,0.06-0.06,0.12-0.11,0.16C71.76,78.95,71.63,79,71.5,79z"/></g><g><path fill="#1f212b" d="M69.5,79h-49c-0.276,0-0.5-0.224-0.5-0.5s0.224-0.5,0.5-0.5h49c0.276,0,0.5,0.224,0.5,0.5S69.776,79,69.5,79z"/></g></svg>